<svg width="216" height="108" viewBox="0 0 216 108" fill="none" xmlns="http://www.w3.org/2000/svg">
<path fill-rule="evenodd" clip-rule="evenodd" d="M116.964 -108C139.854 -106.124 160.736 -97.1405 177.388 -83.2564L164.02 -69.8951L177.415 -56.5055L190.827 -69.9108C204.878 -53.2981 214.012 -32.4011 216 -9.46541H196.909V9.47128H216C214.01 32.4069 204.874 53.3017 190.822 69.913L177.415 56.5115L164.02 69.9012L177.383 83.2602C160.727 97.1444 139.85 106.124 116.958 108L116.948 89.3882L98.0145 89.374L98.0108 107.911C75.2685 105.83 54.5541 96.7296 38.0601 82.7902L50.9548 69.9011L37.5593 56.5115L24.7064 69.3566C10.922 52.8356 1.96639 32.1545 0 9.47125H18.0655V-9.46541H0C1.96431 -32.1464 10.9207 -52.8333 24.7028 -69.3544L37.5595 -56.5055L50.9549 -69.8951L38.0558 -82.7879C54.5527 -96.7295 75.2702 -105.832 98.0169 -107.908L98.0266 -89.3822L116.96 -89.3681L116.964 -108ZM108 -48.7209C134.918 -48.7209 156.745 -26.9032 156.745 0.00332642C156.745 26.91 134.918 48.7267 108 48.7267C81.0816 48.7267 59.2546 26.9098 59.2546 0.00332642C59.2546 -26.9033 81.0818 -48.7209 108 -48.7209ZM108 -44.1765C132.408 -44.1765 152.198 -24.3937 152.198 0.00346375C152.198 24.3999 132.408 44.1826 108 44.1826C83.5922 44.1826 63.8016 24.3999 63.8016 0.00346375C63.8016 -24.3937 83.5922 -44.1765 108 -44.1765ZM108 -55.9929C138.929 -55.9929 164.02 -30.9046 164.02 0.00332642C164.02 30.9105 138.929 55.999 108 55.999C77.071 55.999 51.9794 30.9107 51.9794 0.00332642C51.9794 -30.9046 77.0712 -55.9929 108 -55.9929Z" fill="#1C1C1C" fill-opacity="0.1"/>
</svg>
