<svg width="293" height="585" viewBox="0 0 293 585" fill="none" xmlns="http://www.w3.org/2000/svg">
<path fill-rule="evenodd" clip-rule="evenodd" d="M24.7768 0.000427581C86.7699 5.08006 143.326 29.411 188.425 67.0138L152.22 103.201L188.499 139.464L224.823 103.158C262.878 148.151 287.615 204.747 293 266.865H241.296V318.151H293C287.609 380.269 262.868 436.859 224.811 481.848L188.499 445.552L152.22 481.816L188.413 517.996C143.304 555.599 86.7598 579.92 24.7605 585L24.7342 534.593L-26.544 534.555L-26.5541 584.758C-88.1479 579.122 -144.249 554.476 -188.921 516.723L-153.998 481.815L-190.277 445.552L-225.087 480.341C-262.419 435.596 -286.674 379.585 -292 318.151H-243.073V266.865H-292C-286.68 205.437 -262.423 149.41 -225.096 104.665L-190.276 139.464L-153.997 103.201L-188.932 68.2827C-144.253 30.5243 -88.1432 5.87269 -26.5376 0.248058L-26.5114 50.4231L24.7668 50.4614L24.7768 0.000427581ZM0.499847 160.548C73.4037 160.548 132.518 219.637 132.518 292.509C132.518 365.381 73.4031 424.468 0.499847 424.468C-72.404 424.468 -131.519 365.381 -131.519 292.509C-131.519 219.637 -72.4035 160.548 0.499847 160.548ZM0.499847 172.855C66.6042 172.855 120.204 226.434 120.204 292.509C120.204 358.583 66.6042 412.161 0.499847 412.161C-65.6045 412.161 -119.204 358.583 -119.204 292.509C-119.204 226.434 -65.6045 172.855 0.499847 172.855ZM0.499847 140.852C84.2656 140.852 152.221 208.8 152.221 292.509C152.221 376.216 84.2656 444.164 0.499847 444.164C-83.2659 444.164 -151.222 376.216 -151.222 292.509C-151.222 208.8 -83.2654 140.852 0.499847 140.852Z" fill="#1C1C1C" fill-opacity="0.3"/>
</svg>
