<svg width="334" height="79" viewBox="0 0 334 79" fill="none" xmlns="http://www.w3.org/2000/svg">
<path fill-rule="evenodd" clip-rule="evenodd" d="M41.6113 16.6316H7.54403C3.39482 16.6316 0 20.0264 0 24.1757V54.8239C0 58.9736 3.39484 62.3684 7.54403 62.3684H41.6113C45.7607 62.3684 49.1555 58.9736 49.1555 54.8239V24.1757C49.1555 20.0264 45.7607 16.6316 41.6113 16.6316ZM25.1409 21.5421C23.3707 21.5421 21.9357 22.9776 21.9357 24.7476C21.9357 26.2912 23.0271 27.5801 24.4802 27.8846V50.3296C23.027 50.6342 21.9357 51.9233 21.9357 53.4666C21.9357 55.2365 23.3707 56.6721 25.1409 56.6721C26.9111 56.6721 28.3461 55.2365 28.3461 53.4666C28.3461 51.9234 27.2548 50.6343 25.8016 50.3296V27.8846C27.2548 27.58 28.3461 26.2912 28.3461 24.7476C28.3461 22.9776 26.9111 21.5421 25.1409 21.5421ZM23.1745 24.7476C23.1745 23.6616 24.0551 22.7809 25.1409 22.7809C26.2267 22.7809 27.1073 23.6616 27.1073 24.7476C27.1073 25.8335 26.2268 26.714 25.1409 26.714C24.055 26.714 23.1745 25.8335 23.1745 24.7476ZM24.9174 51.5128C24.9872 51.5379 25.0625 51.5515 25.1409 51.5515C25.2194 51.5515 25.2946 51.5379 25.3644 51.5128C26.3451 51.6238 27.1073 52.4565 27.1073 53.4666C27.1073 54.5526 26.2267 55.4333 25.1409 55.4333C24.0551 55.4333 23.1745 54.5526 23.1745 53.4666C23.1745 52.4565 23.9367 51.6238 24.9174 51.5128ZM14.5763 21.5435C12.9173 21.5435 11.571 22.8889 11.571 24.5483C11.571 25.0927 11.7158 25.6032 11.9689 26.0436L6.64535 31.5375C6.52591 31.6608 6.45913 31.8257 6.45913 31.9973V46.4916C6.45913 46.6677 6.52945 46.8366 6.65448 46.9606L12.2639 52.5262C12.1196 52.8778 12.04 53.2628 12.04 53.6663C12.04 55.326 13.3856 56.6715 15.0453 56.6715C16.7045 56.6715 18.0505 55.326 18.0505 53.6663C18.0505 52.007 16.7046 50.661 15.0453 50.661C14.273 50.661 13.5688 50.9524 13.0364 51.4312L7.78057 46.2164V39.8757H12.9166L12.9182 39.8757C12.9975 41.4645 14.3108 42.729 15.9192 42.729C17.5789 42.729 18.9243 41.3829 18.9243 39.7233C18.9243 38.064 17.5787 36.7185 15.9192 36.7185C14.6604 36.7185 13.5822 37.4929 13.1351 38.5912C13.0667 38.5672 12.9932 38.5542 12.9166 38.5542H7.78057V32.2649L12.8643 27.0185C13.3502 27.3559 13.9402 27.5536 14.5763 27.5536C16.2359 27.5536 17.5814 26.208 17.5814 24.5483C17.5814 22.889 16.2358 21.5435 14.5763 21.5435ZM12.8097 24.5483C12.8097 23.5734 13.601 22.7823 14.5763 22.7823C15.5518 22.7823 16.3427 23.5733 16.3427 24.5483C16.3427 25.5239 15.5517 26.3148 14.5763 26.3148C13.6011 26.3148 12.8097 25.5238 12.8097 24.5483ZM14.1532 39.7233C14.1532 38.7482 14.9441 37.9573 15.9192 37.9573C16.8947 37.9573 17.6855 38.7483 17.6855 39.7233C17.6855 40.6991 16.8944 41.4902 15.9192 41.4902C14.9443 41.4902 14.1532 40.6991 14.1532 39.7233ZM13.2788 53.6663C13.2788 52.691 14.0698 51.8998 15.0453 51.8998C16.0204 51.8998 16.8117 52.6911 16.8117 53.6663C16.8117 54.6417 16.0205 55.4327 15.0453 55.4327C14.0697 55.4327 13.2788 54.6417 13.2788 53.6663ZM36.0058 25.6523C36.0058 23.8161 37.4952 22.3274 39.3312 22.3274C41.1673 22.3274 42.6566 23.8161 42.6566 25.6523C42.6566 27.4888 41.1675 28.978 39.3312 28.978C38.9525 28.978 38.5885 28.9147 38.2493 28.798L34.4246 36.2877L41.2438 42.6018C41.4965 42.8358 41.5271 43.2246 41.3141 43.4953L35.497 50.885C36.9874 51.2137 38.1031 52.5425 38.1031 54.1319C38.1031 55.9684 36.614 57.4576 34.7779 57.4576C32.9417 57.4576 31.4525 55.9684 31.4525 54.1319C31.4525 52.6547 32.4162 51.4027 33.7488 50.9694L39.8986 43.1571L33.1598 36.9174C32.9427 36.7164 32.8857 36.3956 33.0202 36.1321L37.1087 28.126C36.4317 27.5171 36.0058 26.6344 36.0058 25.6523ZM39.3312 23.5662C38.1791 23.5662 37.2446 24.5006 37.2446 25.6523C37.2446 26.8048 38.1792 27.7393 39.3312 27.7393C40.4832 27.7393 41.4178 26.8048 41.4178 25.6523C41.4178 24.5006 40.4834 23.5662 39.3312 23.5662ZM34.7779 52.0458C33.6257 52.0458 32.6913 52.98 32.6913 54.1319C32.6913 55.2843 33.6259 56.2189 34.7779 56.2189C35.9297 56.2189 36.8643 55.2844 36.8643 54.1319C36.8643 52.98 35.9299 52.0458 34.7779 52.0458Z" fill="#00923F"/>
<path d="M64.1239 20.1927H73.6545V22.3975H66.8779V27.1524H72.1906V29.3695H66.8779V34.574H73.7627V36.8287H64.124L64.1239 20.1927ZM75.5438 20.1927H79.6288L82.94 32.1862L86.3432 20.1927H90.2536V36.8287H87.67V22.6305L83.7223 36.8287H81.7253L77.8482 22.6181V36.8287H75.5438L75.5438 20.1927ZM93.4606 20.1927H98.4943C99.7589 20.1927 100.724 20.2923 101.381 20.4964C102.039 20.7003 102.596 21.1535 103.049 21.8566C103.507 22.5597 103.736 23.4125 103.736 24.4233C103.736 26.2662 102.908 27.4809 101.261 28.0675C103.249 28.6916 104.248 30.085 104.248 32.2445C104.248 33.4715 103.852 34.5449 103.071 35.4559C102.284 36.3709 100.786 36.8287 98.5649 36.8287H93.4607L93.4606 20.1927ZM96.1522 27.0897H97.8954C99.1224 27.0897 99.9297 26.8656 100.321 26.4163C100.712 25.9625 100.907 25.3802 100.907 24.6647C100.907 23.8284 100.683 23.2294 100.237 22.8674C99.788 22.5055 99.0977 22.3267 98.1659 22.3267H96.1522V27.0897ZM96.1522 34.6239H98.3694C100.404 34.6239 101.419 33.7253 101.419 31.9283C101.419 31.2291 101.203 30.605 100.774 30.052C100.341 29.4984 99.4636 29.224 98.1407 29.224H96.1522V34.6239ZM107.064 20.1926H116.594V22.3974H109.818V27.1524H115.13V29.3695H109.818V34.574H116.703V36.8286H107.064L107.064 20.1926ZM118.558 20.1926H122.298C124.112 20.1926 125.559 20.5131 126.645 21.1535C127.727 21.7984 128.551 22.7508 129.104 24.0199C129.661 25.2888 129.94 26.6907 129.94 28.2384C129.94 29.8604 129.69 31.3081 129.191 32.5811C128.692 33.8541 127.927 34.8777 126.899 35.6598C125.872 36.4375 124.407 36.8286 122.506 36.8286H118.558V20.1926ZM121.312 22.3974V34.6239H122.456C124.058 34.6239 125.219 34.0663 125.942 32.9599C126.666 31.8487 127.028 30.3679 127.028 28.5167C127.028 24.4356 125.506 22.3974 122.456 22.3974H121.312ZM132.586 20.1926H136.326C138.14 20.1926 139.587 20.5131 140.673 21.1535C141.755 21.7984 142.579 22.7508 143.132 24.0199C143.689 25.2888 143.968 26.6907 143.968 28.2384C143.968 29.8604 143.718 31.3081 143.219 32.5811C142.72 33.8541 141.955 34.8777 140.927 35.6598C139.899 36.4375 138.435 36.8286 136.534 36.8286H132.586V20.1926ZM135.34 22.3974V34.6239H136.484C138.086 34.6239 139.247 34.0663 139.97 32.9599C140.694 31.8487 141.056 30.3679 141.056 28.5167C141.056 24.4356 139.534 22.3974 136.484 22.3974H135.34ZM146.602 20.1926H156.132V22.3974H149.355V27.1524H154.668V29.3695H149.355V34.574H156.24V36.8286H146.602L146.602 20.1926ZM158.096 20.1926H161.836C163.65 20.1926 165.097 20.5131 166.183 21.1535C167.265 21.7984 168.089 22.7508 168.642 24.0199C169.199 25.2888 169.478 26.6907 169.478 28.2384C169.478 29.8604 169.228 31.3081 168.729 32.5811C168.23 33.8541 167.464 34.8777 166.437 35.6598C165.409 36.4375 163.945 36.8286 162.044 36.8286H158.096V20.1926ZM160.85 22.3974V34.6239H161.994C163.595 34.6239 164.756 34.0663 165.48 32.9599C166.204 31.8487 166.566 30.3679 166.566 28.5167C166.566 24.4356 165.043 22.3974 161.994 22.3974H160.85ZM176.766 20.1926H179.52V36.8287H176.766V20.1926ZM180.727 20.1926H190.881V22.5306H187.162V36.8286H184.409V22.5306H180.727L180.727 20.1926ZM206.64 23.9117L204.285 24.7269C204.011 23.8496 203.644 23.2001 203.195 22.7844C202.746 22.3642 202.13 22.1564 201.348 22.1564C200.624 22.1564 200.067 22.3681 199.671 22.7929C199.281 23.2209 199.081 23.7123 199.081 24.2614C199.081 24.8727 199.301 25.3595 199.746 25.7214C200.187 26.0789 201.074 26.5115 202.397 27.0191C203.528 27.4476 204.397 27.8596 205.005 28.2466C205.617 28.6378 206.107 29.1617 206.485 29.8149C206.864 30.4677 207.051 31.2252 207.051 32.0863C207.051 33.4838 206.561 34.6738 205.571 35.6598C204.585 36.6414 203.199 37.1324 201.423 37.1324C198.349 37.1324 196.448 35.5808 195.72 32.4774L198.178 31.7826C198.611 33.8294 199.73 34.8525 201.544 34.8525C202.43 34.8525 203.104 34.6239 203.561 34.1661C204.019 33.7084 204.248 33.1387 204.248 32.4646C204.248 31.9698 204.09 31.512 203.773 31.0879C203.457 30.6677 202.671 30.2143 201.411 29.7359C200.075 29.2322 199.118 28.8037 198.528 28.4544C197.937 28.1049 197.437 27.5888 197.022 26.907C196.605 26.2247 196.402 25.4509 196.402 24.5814C196.402 23.2546 196.864 22.1436 197.783 21.2409C198.707 20.3382 199.93 19.8889 201.46 19.8889C204.164 19.8889 205.891 21.2285 206.64 23.9117ZM220.896 28.5043C220.896 31.3495 220.388 33.4966 219.374 34.9523C218.358 36.4045 216.882 37.1324 214.947 37.1324C213.005 37.1324 211.519 36.4084 210.488 34.9567C209.456 33.509 208.94 31.358 208.94 28.5044C208.94 25.6757 209.452 23.5332 210.475 22.0775C211.498 20.6168 212.988 19.8889 214.935 19.8889C216.861 19.8889 218.338 20.6129 219.361 22.0644C220.384 23.5123 220.896 25.6587 220.896 28.5043ZM218.009 28.5043C218.009 26.5282 217.776 24.9769 217.319 23.8412C216.861 22.7094 216.058 22.1436 214.914 22.1436C213.766 22.1436 212.967 22.7094 212.51 23.8496C212.056 24.9847 211.827 26.5367 211.827 28.5043C211.827 30.4386 212.052 31.9821 212.497 33.1345C212.946 34.2911 213.761 34.8649 214.947 34.8649C216.062 34.8649 216.849 34.3078 217.314 33.1883C217.776 32.0735 218.009 30.5097 218.009 28.5043ZM223.529 20.1926H226.283V34.4989H232.17V36.8286H223.53L223.529 20.1926ZM233.609 20.1926H236.301V30.5136C236.301 31.6699 236.363 32.5188 236.484 33.0679C236.605 33.617 236.883 34.0539 237.32 34.3739C237.753 34.6945 238.34 34.8525 239.08 34.8525C239.779 34.8525 240.323 34.7236 240.715 34.4574C241.102 34.1951 241.38 33.8209 241.543 33.3384C241.705 32.8516 241.784 31.8947 241.784 30.4676V20.1926H244.259V30.3303C244.259 31.9573 244.143 33.2091 243.914 34.087C243.681 34.965 243.145 35.6929 242.304 36.2671C241.464 36.8453 240.336 37.1323 238.922 37.1323C237.823 37.1323 236.871 36.9535 236.064 36.5914C235.253 36.2296 234.645 35.643 234.229 34.8362C233.813 34.0287 233.609 32.5854 233.609 30.5136V20.1926ZM245.345 20.1926H255.499V22.5306H251.78V36.8286H249.026V22.5306H245.345L245.345 20.1926ZM256.694 20.1926H259.447V36.8286H256.694V20.1926ZM274.049 28.5043C274.049 31.3495 273.542 33.4966 272.527 34.9523C271.512 36.4045 270.035 37.1324 268.101 37.1324C266.158 37.1324 264.672 36.4084 263.641 34.9567C262.609 33.509 262.093 31.358 262.093 28.5044C262.093 25.6757 262.605 23.5332 263.629 22.0775C264.652 20.6168 266.141 19.8889 268.088 19.8889C270.014 19.8889 271.491 20.6129 272.514 22.0644C273.538 23.5123 274.049 25.6587 274.049 28.5043ZM271.162 28.5043C271.162 26.5282 270.929 24.9769 270.472 23.8412C270.014 22.7094 269.211 22.1436 268.067 22.1436C266.919 22.1436 266.12 22.7094 265.663 23.8496C265.209 24.9847 264.981 26.5367 264.981 28.5043C264.981 30.4386 265.205 31.9821 265.65 33.1345C266.1 34.2911 266.915 34.8649 268.101 34.8649C269.215 34.8649 270.002 34.3078 270.467 33.1883C270.929 32.0735 271.162 30.5097 271.162 28.5043ZM276.595 20.1926H279.84L285.311 32.1861V20.1926H287.616V36.8286H285.044L278.9 23.5084V36.8286H276.595L276.595 20.1926ZM300.62 23.9116L298.266 24.7269C297.991 23.8496 297.624 23.2001 297.175 22.7844C296.726 22.3642 296.111 22.1564 295.329 22.1564C294.605 22.1564 294.047 22.3681 293.652 22.7929C293.261 23.2209 293.061 23.7123 293.061 24.2614C293.061 24.8727 293.282 25.3595 293.727 25.7214C294.167 26.0789 295.054 26.5115 296.377 27.0191C297.508 27.4476 298.377 27.8596 298.985 28.2466C299.597 28.6377 300.088 29.1617 300.466 29.8149C300.845 30.4676 301.032 31.2252 301.032 32.0863C301.032 33.4838 300.541 34.6737 299.551 35.6597C298.565 36.6414 297.18 37.1323 295.403 37.1323C292.329 37.1323 290.428 35.5808 289.7 32.4774L292.158 31.7825C292.591 33.8294 293.71 34.8525 295.524 34.8525C296.41 34.8525 297.084 34.6238 297.542 34.1661C297.999 33.7083 298.228 33.1386 298.228 32.4646C298.228 31.9698 298.07 31.512 297.753 31.0879C297.437 30.6677 296.651 30.2143 295.391 29.7359C294.056 29.2322 293.099 28.8037 292.508 28.4544C291.917 28.1049 291.418 27.5888 291.002 26.907C290.586 26.2247 290.382 25.4508 290.382 24.5813C290.382 23.2545 290.844 22.1436 291.763 21.2409C292.687 20.3382 293.91 19.8889 295.441 19.8889C298.144 19.8889 299.871 21.2285 300.62 23.9116Z" fill="#00923F"/>
<path d="M67.973 59.1111H67.3604C66.2138 57.6051 65.6385 55.9377 65.6385 54.1076C65.6385 52.3601 66.2138 50.7005 67.3604 49.1289H67.973C66.9866 50.5987 66.4933 52.2624 66.4933 54.1199C66.4933 55.8917 66.9866 57.5552 67.973 59.1111ZM74.8757 57.1157H73.8747V49.1289H74.8757V57.1157ZM87.0943 57.1157H86.1242L81.9936 50.1534L82.0036 50.6788C82.0153 50.8784 82.0218 51.0463 82.0218 51.1821V57.1157H81.2143V49.1289H82.4672L86.3294 55.6418L86.3177 55.0845C86.3096 54.8671 86.3057 54.6731 86.3057 54.5052V49.129H87.0943V57.1157ZM93.4336 57.1157V49.1289H96.1143C97.2407 49.1289 98.1195 49.512 98.7467 50.2813C99.3756 51.0502 99.6893 51.9908 99.6893 53.1014C99.6893 54.2297 99.3817 55.1805 98.7704 55.9535C98.1571 56.7282 97.3824 57.1157 96.4417 57.1157H93.4336ZM94.4343 56.267H96.054C96.9131 56.267 97.5639 55.9711 98.0093 55.3782C98.4547 54.7851 98.6764 54.0019 98.6764 53.0313C98.6764 52.2447 98.4647 51.5355 98.0414 50.9085C97.6177 50.2794 96.9571 49.9653 96.054 49.9653H94.4343V56.267ZM106.532 57.1157H105.531V49.1289H106.532V57.1157ZM118.247 57.1157H117.225L116.416 54.7812H113.462L112.747 57.1157H111.912L114.502 49.1289H115.645L118.247 57.1157ZM116.206 54.032L114.978 50.1935L113.737 54.032H116.206ZM123.188 49.1289H123.797C124.948 50.635 125.523 52.3024 125.523 54.1318C125.523 55.8793 124.948 57.5394 123.797 59.1111H123.188C124.175 57.6411 124.67 55.9772 124.67 54.1199C124.67 52.3484 124.175 50.6848 123.188 49.1289ZM147.174 57.1157H146.174V49.1289H149.006C149.891 49.1289 150.544 49.3704 150.965 49.8518C151.386 50.3332 151.598 50.8823 151.598 51.4975C151.598 52.1843 151.368 52.7517 150.911 53.2012C150.452 53.6505 149.853 53.8741 149.111 53.8741H147.174V57.1157ZM147.174 53.0435H149.012C149.483 53.0435 149.864 52.9014 150.152 52.62C150.442 52.3364 150.585 51.9627 150.585 51.4975C150.585 51.1001 150.458 50.7465 150.2 50.433C149.942 50.1215 149.569 49.9653 149.082 49.9653H147.174V53.0435ZM162.962 57.1157H161.916L160.44 53.6583H158.153V57.1157H157.216V49.1289H160.364C161.218 49.1289 161.852 49.3624 162.263 49.8275C162.675 50.2933 162.881 50.8042 162.881 51.3578C162.881 51.783 162.765 52.1902 162.535 52.5799C162.305 52.9714 161.924 53.2489 161.394 53.4168L162.962 57.1157ZM158.153 52.8436H160.242C160.791 52.8436 161.203 52.6998 161.472 52.408C161.744 52.1186 161.88 51.7611 161.88 51.3396C161.88 50.9183 161.736 50.5909 161.451 50.3568C161.163 50.1234 160.801 50.0054 160.364 50.0054H158.153V52.8436ZM169.905 57.1157H168.904V49.1289H169.905V57.1157ZM181.632 49.1289L178.942 57.1157H177.975L175.285 49.1289H176.325L178.554 55.7179L180.762 49.1289H181.632ZM191.961 57.1157H190.939L190.13 54.7812H187.176L186.461 57.1157H185.626L188.217 49.1289H189.359L191.961 57.1157ZM189.92 54.0321L188.692 50.1935L187.452 54.0321H189.92ZM198.94 57.1157H197.945V50.0054H195.658V49.129H201.235V50.0054H198.94V57.1157ZM211.862 56.2388V57.1157H206.695V49.1289H211.75V50.0054H207.696V52.5458H210.913V53.3591H207.696V56.2388L211.862 56.2388ZM236.998 56.2388V57.1157H232.283V49.1289H233.307V56.2388H236.998ZM243.496 57.1157H242.495V49.1289H243.496V57.1157ZM257.546 57.1157H256.576V50.1412L253.977 57.1157H253.298L250.684 50.1412V57.1157H249.834V49.1289H251.32L253.725 55.5179L256.084 49.1289H257.546V57.1157ZM264.886 57.1157H263.885V49.1289H264.886V57.1157ZM273.629 57.1157H272.635V50.0054H270.348V49.129H275.924V50.0054H273.629L273.629 57.1157ZM286.551 56.2388V57.1157H281.385V49.1289H286.44V50.0054H282.385V52.5458H285.603V53.3591H282.385V56.2388L286.551 56.2388ZM292.293 57.1157V49.1289H294.974C296.1 49.1289 296.979 49.5121 297.606 50.2813C298.235 51.0502 298.549 51.9908 298.549 53.1014C298.549 54.2297 298.241 55.1805 297.63 55.9535C297.017 56.7282 296.242 57.1157 295.301 57.1157H292.293ZM293.294 56.267H294.914C295.773 56.267 296.424 55.9711 296.869 55.3782C297.314 54.7851 297.536 54.0019 297.536 53.0313C297.536 52.2447 297.324 51.5355 296.901 50.9085C296.478 50.2794 295.817 49.9653 294.914 49.9653H293.294V56.267Z" fill="black" stroke="#121212" stroke-width="0.0449053"/>
</svg>
