<svg width="470" height="124" viewBox="0 0 470 124" fill="none" xmlns="http://www.w3.org/2000/svg">
<g filter="url(#filter0_b_52_9251)">
<path fill-rule="evenodd" clip-rule="evenodd" d="M65.1864 21.3059C73.77 22.0093 81.6009 25.3782 87.8453 30.5847L82.8324 35.5952L87.8557 40.6163L92.8851 35.5893C98.1543 41.8191 101.579 49.6555 102.325 58.2563H95.1659V65.3576H102.325C101.579 73.9585 98.1529 81.794 92.8834 88.0233L87.8556 82.9977L82.8324 88.0188L87.8436 93.0284C81.5978 98.235 73.7686 101.603 65.1841 102.306L65.1805 95.3265L58.0804 95.3211L58.079 102.272C49.5506 101.492 41.7827 98.0795 35.5975 92.8522L40.433 88.0188L35.4097 82.9977L30.5899 87.8146C25.4207 81.6192 22.0623 73.8638 21.325 65.3576H28.0995V58.2563H21.325C22.0616 49.751 25.4202 41.9934 30.5885 35.798L35.4098 40.6163L40.433 35.5952L35.5959 30.7604C41.7822 25.5323 49.5513 22.119 58.0813 21.3402L58.0849 28.2875L65.185 28.2928L65.1864 21.3059ZM61.8249 43.5355C71.9193 43.5355 80.1044 51.7172 80.1044 61.8071C80.1044 71.8971 71.9192 80.0784 61.8249 80.0784C51.7306 80.0784 43.5454 71.897 43.5454 61.8071C43.5454 51.7171 51.7306 43.5355 61.8249 43.5355ZM61.8249 45.2397C70.9779 45.2397 78.3993 52.6582 78.3993 61.8072C78.3993 70.9558 70.9779 78.3744 61.8249 78.3744C52.672 78.3744 45.2506 70.9558 45.2506 61.8072C45.2506 52.6582 52.672 45.2397 61.8249 45.2397ZM61.8249 40.8085C73.4233 40.8085 82.8324 50.2166 82.8324 61.8071C82.8324 73.3973 73.4233 82.8055 61.8249 82.8055C50.2266 82.8055 40.8172 73.3974 40.8172 61.8071C40.8172 50.2166 50.2267 40.8085 61.8249 40.8085Z" fill="#ECAA01"/>
<path d="M117.492 65.9929L126.019 25.9208H143.407L151.098 56.6298L171.887 25.9208H189.164L180.637 65.9929H168.989L176.569 34.8381L155.669 65.9929H143.129L135.048 34.5593L129.586 65.9929H117.492ZM221.824 65.9929H205.996C201.685 65.9929 198.276 65.5378 195.769 64.6274C193.26 63.7172 191.403 62.5468 190.195 61.1162C188.988 59.6859 188.291 58.1067 188.105 56.3791C187.919 54.6511 188.012 52.9513 188.384 51.2795C188.755 49.4216 189.471 47.6103 190.529 45.8455C191.588 44.0805 193.065 42.5199 194.96 41.164C196.855 39.8077 199.215 38.7115 202.038 37.8757C204.862 37.0397 208.262 36.6217 212.237 36.6217H228.066L226.784 42.6965H212.405C210.807 42.6965 209.386 42.7616 208.141 42.8916C206.896 43.0216 205.819 43.2816 204.908 43.6718C203.998 44.062 203.227 44.6193 202.596 45.3439C201.964 46.0684 201.462 47.0437 201.091 48.2697H225.613L224.276 54.4563H199.809C199.66 55.5708 199.66 56.4812 199.809 57.187C199.958 57.8931 200.357 58.4503 201.007 58.8591C201.658 59.2678 202.596 59.5463 203.822 59.6951C205.048 59.8436 206.664 59.918 208.671 59.918H223.106L221.824 65.9929ZM227.174 65.9929L228.456 59.918H251.362C255.189 59.918 257.326 58.9335 257.771 56.9641C258.143 55.0692 256.415 54.1217 252.588 54.1217H243.114C241.107 54.1217 239.249 54.0568 237.54 53.9268C235.831 53.7966 234.401 53.4622 233.249 52.9235C232.097 52.3847 231.28 51.5672 230.797 50.4712C230.314 49.3752 230.276 47.8797 230.685 45.9848C231.949 39.7426 237.447 36.6217 247.182 36.6217H270.423L269.141 42.6965H249.913C247.424 42.6965 245.529 42.8638 244.228 43.1982C242.928 43.5325 242.147 44.3313 241.887 45.5946C241.553 47.2296 243.095 48.0468 246.513 48.0468H256.434C258.217 48.0468 259.908 48.1768 261.505 48.437C263.103 48.697 264.459 49.1335 265.574 49.7467C266.689 50.3598 267.515 51.2051 268.054 52.2826C268.593 53.36 268.714 54.6977 268.416 56.2954C268.156 57.6702 267.645 58.9428 266.884 60.1131C266.122 61.2835 265.156 62.3051 263.986 63.1785C262.815 64.0516 261.468 64.7388 259.945 65.2405C258.421 65.7422 256.787 65.9929 255.041 65.9929L227.174 65.9929ZM307.206 51.4465C307.615 49.403 307.615 47.8146 307.206 46.6813C306.797 45.5482 306.027 44.7029 304.893 44.1457C303.76 43.5881 302.292 43.2445 300.49 43.1145C298.688 42.9845 296.617 42.9379 294.276 42.9753L290.263 43.0309L286.696 59.6951H290.765C293.143 59.6951 295.251 59.6485 297.091 59.5556C298.93 59.4629 300.537 59.1564 301.911 58.6362C303.286 58.116 304.41 57.2985 305.283 56.1839C306.157 55.0692 306.797 53.49 307.206 51.4465ZM272.373 76.5264L280.844 36.6216H301.689C304.809 36.6216 307.55 36.9467 309.909 37.5969C312.268 38.2471 314.182 39.2131 315.65 40.4949C317.117 41.7768 318.111 43.3466 318.631 45.2046C319.151 47.0622 319.151 49.1986 318.631 51.6138C318.445 52.4684 318.158 53.4251 317.767 54.484C317.377 55.543 316.811 56.6019 316.068 57.6609C315.324 58.7198 314.386 59.7507 313.253 60.754C312.12 61.7571 310.699 62.649 308.989 63.4292C307.28 64.2093 305.265 64.8317 302.943 65.2961C300.62 65.7607 297.917 65.9928 294.833 65.9928H285.359L283.129 76.5264L272.373 76.5264ZM352.796 60.1409L354.133 54.0102H341.315C340.572 54.0102 339.819 54.0382 339.058 54.0938C338.296 54.1497 337.571 54.2704 336.884 54.4563C336.197 54.6418 335.602 54.9484 335.101 55.3757C334.599 55.803 334.274 56.3698 334.125 57.0755C333.791 58.3759 334.088 59.212 335.017 59.5836C335.946 59.9551 337.358 60.1409 339.253 60.1409H352.796ZM328.44 42.6965L329.722 36.6216H351.96C357.682 36.6216 361.741 37.5133 364.137 39.2968C366.534 41.0803 367.342 43.8484 366.562 47.601L362.661 65.9929H333.512C329.574 65.9929 326.629 65.2127 324.679 63.6521C322.728 62.0915 322.031 59.9736 322.588 57.2985C322.997 55.3665 323.768 53.7966 324.901 52.5891C326.035 51.3817 327.428 50.4527 329.081 49.8025C330.735 49.1523 332.574 48.7158 334.599 48.4926C336.624 48.2697 338.751 48.1583 340.98 48.1583H355.359C355.582 47.1552 355.601 46.3006 355.415 45.5946C355.229 44.8888 354.802 44.322 354.133 43.8947C353.464 43.4674 352.517 43.1609 351.291 42.9753C350.065 42.7894 348.504 42.6965 346.609 42.6965L328.44 42.6965ZM378.879 65.9929L367.732 36.6217H379.715L386.737 57.5214L403.178 36.6217H414.882L390.416 65.9929H378.879ZM413.545 65.9929L419.787 36.6217H438.011C440.612 36.6217 442.628 36.7794 444.058 37.0953C445.489 37.4111 446.511 37.9686 447.124 38.7673C447.737 39.5663 448.015 40.6438 447.96 41.9997C447.904 43.356 447.653 45.0558 447.207 47.0993C447.133 47.2852 447.068 47.5266 447.012 47.8239C446.956 48.1212 446.892 48.4741 446.817 48.8829H436.507L437.008 46.5421C437.231 45.4646 437.361 44.6378 437.398 44.062C437.436 43.486 437.213 43.0587 436.729 42.7802C436.247 42.5014 435.429 42.3436 434.277 42.3063C433.125 42.2693 431.472 42.2507 429.317 42.2507L424.301 65.9929L413.545 65.9929Z" fill="white"/>
<path d="M118.461 97.6718C118.082 97.6718 117.729 97.6441 117.4 97.5887C117.07 97.5334 116.772 97.4632 116.506 97.3804C116.241 97.2975 116.011 97.2147 115.819 97.1294L115.673 95.5474C116.005 95.7218 116.398 95.8769 116.853 96.0151C117.308 96.1533 117.793 96.2235 118.308 96.2235C118.852 96.2235 119.245 96.1449 119.488 95.9876C119.73 95.8301 119.851 95.5879 119.851 95.2604V95.19C119.851 94.9774 119.801 94.8008 119.696 94.6626C119.592 94.5244 119.418 94.4032 119.175 94.297C118.933 94.1906 118.603 94.082 118.186 93.9716C117.6 93.8099 117.119 93.6249 116.743 93.4186C116.366 93.2124 116.088 92.9551 115.909 92.6467C115.73 92.3385 115.641 91.9515 115.641 91.4834V91.4069C115.641 90.6924 115.883 90.1438 116.366 89.761C116.849 89.3782 117.561 89.1868 118.505 89.1868C119.092 89.1868 119.596 89.2401 120.017 89.3465C120.438 89.4526 120.791 89.576 121.076 89.7163L121.223 91.1901C120.904 91.0199 120.541 90.8774 120.13 90.7647C119.72 90.6521 119.271 90.5968 118.786 90.5968C118.424 90.5968 118.14 90.6307 117.929 90.6987C117.719 90.7668 117.568 90.8668 117.476 90.9987C117.385 91.1305 117.338 91.2901 117.338 91.477C117.338 91.6685 117.387 91.8535 117.483 91.9938C117.578 92.1341 117.748 92.2617 117.995 92.3787C118.242 92.4957 118.593 92.617 119.048 92.7404C119.626 92.9018 120.1 93.0763 120.468 93.2635C120.836 93.4506 121.108 93.6929 121.287 93.9907C121.465 94.2885 121.555 94.6819 121.555 95.1709V95.2858C121.555 96.0726 121.3 96.6658 120.787 97.0677C120.275 97.4696 119.498 97.6718 118.461 97.6718ZM126.993 97.5059L127.261 89.3528H129.673L131.204 94.5392H131.287L132.811 89.3528H135.216L135.491 97.5059H133.87L133.794 94.5713L133.723 91.1837H133.622L132.02 96.5552H130.464L128.856 91.1837H128.754L128.684 94.5776L128.614 97.5059H126.993ZM140.68 97.5059L143.085 89.3528H145.631L148.029 97.5059H146.339L144.438 90.4565H144.285L142.371 97.5059H140.68ZM142.505 95.4261V94.0929H146.192V95.4261H142.505ZM157.959 97.5059L157.774 95.9174C157.744 95.6323 157.685 95.3943 157.595 95.2029C157.506 95.0115 157.372 94.8646 157.194 94.7648C157.015 94.6647 156.768 94.616 156.454 94.616L154.482 94.6097V93.3209L156.556 93.3146C157.019 93.3146 157.353 93.206 157.555 92.9913C157.757 92.7764 157.857 92.4703 157.857 92.0706V91.9173C157.857 91.5218 157.757 91.2197 157.555 91.0135C157.353 90.8073 157.015 90.7054 156.543 90.7054H154.463V89.3528H156.779C157.736 89.3528 158.435 89.5463 158.876 89.9334C159.316 90.3204 159.535 90.8711 159.535 91.5856V91.7643C159.535 92.3001 159.405 92.7255 159.146 93.04C158.886 93.3548 158.474 93.542 157.908 93.6015V93.8313L157.442 93.6015C157.927 93.6357 158.304 93.7376 158.569 93.9079C158.835 94.0778 159.029 94.3118 159.152 94.6118C159.275 94.9115 159.369 95.2837 159.433 95.726L159.682 97.5059H157.959ZM153.321 97.5059V89.3528H154.954V93.7803L154.967 94.3989V97.5059H153.321ZM167.053 97.5059V89.6655H168.731V97.5059H167.053ZM164.731 90.7499V89.3529H171.04V90.7499H164.731ZM185.259 97.5059L185.527 89.3528H187.938L189.469 94.5392H189.552L191.077 89.3528H193.482L193.756 97.5059H192.136L192.059 94.5713L191.989 91.1837H191.887L190.286 96.5552H188.729L187.121 91.1837H187.019L186.949 94.5776L186.879 97.5059H185.259ZM198.946 97.5059L201.351 89.3528H203.896L206.295 97.5059H204.604L202.703 90.4565H202.55L200.636 97.5059H198.946ZM200.77 95.4261V94.0929H204.458V95.4261H200.77ZM213.966 89.3528L216.531 95.6813H216.614L216.544 92.2046V89.3528H218.145V97.5059H215.835L213.207 91.0625H213.124L213.194 94.6478V97.5059H211.586V89.3528L213.966 89.3528ZM227.271 97.6909C226.148 97.6909 225.321 97.4145 224.789 96.8636C224.257 96.313 223.992 95.509 223.992 94.45V89.3528H225.669V94.4884C225.669 95.0711 225.797 95.5132 226.05 95.8174C226.303 96.1216 226.709 96.2746 227.271 96.2746C227.828 96.2746 228.234 96.1216 228.487 95.8174C228.74 95.5132 228.865 95.0711 228.865 94.4884V89.3528H230.543V94.45C230.543 95.509 230.278 96.313 229.746 96.8636C229.214 97.4145 228.389 97.6909 227.271 97.6909ZM236.384 97.5059V89.3528H238.055V97.5059H236.384ZM237.341 94.4691V93.0657H241.564V94.4691H237.341ZM236.869 90.7625V89.3528H241.66V90.7625H236.869ZM246.607 97.5058L249.012 89.3528H251.557L253.956 97.5058H252.266L250.365 90.4565H250.212L248.298 97.5058H246.607ZM248.431 95.4261V94.0929H252.119V95.4261H248.431ZM262.285 97.6782C261.179 97.6782 260.354 97.3782 259.807 96.7786C259.261 96.179 258.986 95.3263 258.986 94.2205V92.6127C258.986 91.5154 259.261 90.6691 259.807 90.0737C260.354 89.4783 261.177 89.1805 262.278 89.1805C262.593 89.1805 262.88 89.2061 263.139 89.257C263.399 89.3081 263.635 89.374 263.845 89.4568C264.056 89.54 264.239 89.6313 264.396 89.7293L264.524 91.2028C264.273 91.0498 263.99 90.9179 263.675 90.8073C263.361 90.6966 262.993 90.6415 262.572 90.6415C261.942 90.6415 261.472 90.8178 261.162 91.171C260.851 91.5239 260.696 92.0216 260.696 92.6638V94.1567C260.696 94.7944 260.853 95.29 261.168 95.645C261.483 96.0003 261.97 96.179 262.629 96.179C263.042 96.179 263.407 96.1237 263.726 96.013C264.045 95.9023 264.333 95.7663 264.587 95.6048L264.46 97.104C264.307 97.2017 264.122 97.2933 263.905 97.3804C263.688 97.4675 263.446 97.54 263.176 97.5951C262.906 97.6504 262.608 97.6782 262.285 97.6782ZM271.984 97.5058V89.6655H273.662V97.5058H271.984ZM269.662 90.7498V89.3528H275.972V90.7498H269.662ZM284.638 97.6909C283.515 97.6909 282.688 97.4145 282.157 96.8636C281.625 96.3129 281.359 95.5089 281.359 94.45V89.3528H283.037V94.4884C283.037 95.0711 283.164 95.5132 283.418 95.8174C283.671 96.1215 284.077 96.2746 284.638 96.2746C285.195 96.2746 285.602 96.1215 285.855 95.8174C286.108 95.5132 286.233 95.0711 286.233 94.4884V89.3528H287.911V94.45C287.911 95.5089 287.645 96.3129 287.113 96.8636C286.582 97.4145 285.757 97.6909 284.638 97.6909ZM298.389 97.5058L298.204 95.9174C298.174 95.6323 298.115 95.3943 298.026 95.2029C297.936 95.0115 297.802 94.8646 297.624 94.7648C297.445 94.6647 297.198 94.616 296.884 94.616L294.912 94.6096V93.3209L296.986 93.3146C297.449 93.3146 297.783 93.206 297.985 92.9913C298.187 92.7763 298.287 92.4703 298.287 92.0706V91.9173C298.287 91.5218 298.187 91.2197 297.985 91.0135C297.783 90.8073 297.445 90.7053 296.973 90.7053H294.893V89.3528H297.209C298.166 89.3528 298.866 89.5463 299.306 89.9334C299.746 90.3204 299.965 90.8711 299.965 91.5856V91.7643C299.965 92.3001 299.835 92.7255 299.576 93.04C299.316 93.3548 298.904 93.542 298.338 93.6015V93.8313L297.873 93.6015C298.357 93.6357 298.734 93.7376 299 93.9078C299.265 94.0778 299.459 94.3118 299.582 94.6118C299.706 94.9114 299.799 95.2837 299.863 95.726L300.112 97.5058H298.389ZM293.751 97.5058V89.3528H295.385V93.7802L295.397 94.3989V97.5058H293.751ZM307.298 97.5058H305.621V89.3528H307.298V97.5058ZM315.582 89.3528L318.146 95.6813H318.23L318.159 92.2045V89.3528H319.761V97.5058H317.451L314.823 91.0625H314.74L314.81 94.6478V97.5058H313.202V89.3528H315.582ZM328.223 97.6782C327.602 97.6782 327.083 97.5463 326.664 97.2848C326.245 97.0232 325.931 96.6447 325.72 96.1491C325.51 95.6538 325.403 95.056 325.403 94.3544V92.734C325.403 91.5813 325.712 90.7008 326.326 90.0927C326.941 89.4846 327.84 89.1805 329.027 89.1805C329.41 89.1805 329.762 89.2083 330.084 89.2655C330.405 89.3229 330.696 89.3952 330.958 89.4825C331.219 89.5696 331.445 89.6676 331.636 89.7737L331.776 91.2155C331.466 91.054 331.111 90.9116 330.711 90.7903C330.311 90.6691 329.856 90.6095 329.346 90.6095C328.58 90.6095 328.017 90.7924 327.655 91.158C327.294 91.5239 327.113 92.0748 327.113 92.8105V94.3608C327.113 94.9646 327.255 95.4303 327.538 95.7578C327.821 96.0853 328.255 96.2491 328.842 96.2491C329.118 96.2491 329.356 96.2065 329.556 96.1215C329.756 96.0363 329.922 95.9217 330.054 95.7768C330.186 95.6323 330.286 95.4751 330.354 95.3048V93.5952L330.583 94.1119L328.906 94.1183V92.7914H331.968V96.1853L330.322 96.179C330.254 96.4596 330.143 96.7127 329.99 96.938C329.837 97.1635 329.618 97.342 329.333 97.4762C329.048 97.6101 328.678 97.6782 328.223 97.6782ZM330.398 95.828H331.968V97.5058H330.341L330.398 95.828ZM349.101 97.6718C348.723 97.6718 348.37 97.644 348.04 97.5887C347.711 97.5334 347.413 97.4632 347.147 97.3804C346.881 97.2975 346.652 97.2146 346.46 97.1294L346.313 95.5473C346.645 95.7218 347.039 95.8769 347.494 96.0151C347.949 96.1533 348.434 96.2235 348.948 96.2235C349.493 96.2235 349.886 96.1448 350.129 95.9876C350.371 95.8301 350.492 95.5878 350.492 95.2604V95.1899C350.492 94.9774 350.441 94.8008 350.337 94.6626C350.233 94.5244 350.058 94.4032 349.816 94.297C349.573 94.1906 349.244 94.082 348.827 93.9716C348.24 93.8099 347.759 93.6248 347.383 93.4186C347.007 93.2124 346.728 92.9551 346.55 92.6466C346.371 92.3385 346.282 91.9514 346.282 91.4834V91.4069C346.282 90.6924 346.524 90.1438 347.007 89.761C347.489 89.3782 348.202 89.1868 349.146 89.1868C349.733 89.1868 350.237 89.24 350.658 89.3465C351.079 89.4526 351.432 89.576 351.717 89.7163L351.864 91.1901C351.545 91.0198 351.181 90.8774 350.771 90.7646C350.36 90.6521 349.911 90.5968 349.427 90.5968C349.065 90.5968 348.78 90.6307 348.57 90.6987C348.359 90.7668 348.208 90.8668 348.117 90.9987C348.025 91.1305 347.979 91.2901 347.979 91.477C347.979 91.6684 348.027 91.8535 348.123 91.9938C348.219 92.1341 348.389 92.2617 348.636 92.3787C348.882 92.4957 349.233 92.617 349.688 92.7403C350.267 92.9018 350.741 93.0763 351.109 93.2635C351.477 93.4506 351.749 93.6929 351.927 93.9907C352.106 94.2885 352.196 94.6819 352.196 95.1709V95.2858C352.196 96.0726 351.94 96.6658 351.428 97.0677C350.915 97.4696 350.139 97.6718 349.101 97.6718ZM360.894 97.6909C359.767 97.6909 358.916 97.3952 358.34 96.8061C357.763 96.2171 357.474 95.375 357.474 94.2777V92.6191C357.474 91.5175 357.763 90.6691 358.34 90.0737C358.916 89.4783 359.767 89.1805 360.894 89.1805C362.021 89.1805 362.873 89.4783 363.45 90.0737C364.026 90.6691 364.313 91.5175 364.313 92.6191V94.2777C364.313 95.375 364.026 96.2171 363.452 96.8061C362.878 97.3952 362.025 97.6909 360.894 97.6909ZM360.894 96.3C361.468 96.3 361.897 96.13 362.182 95.7898C362.467 95.4494 362.61 94.971 362.61 94.3544V92.5426C362.61 91.9046 362.467 91.4132 362.182 91.0709C361.897 90.7286 361.468 90.5584 360.894 90.5584C360.324 90.5584 359.896 90.7286 359.611 91.0709C359.326 91.4132 359.184 91.9046 359.184 92.5426V94.3544C359.184 94.971 359.326 95.4494 359.611 95.7898C359.896 96.13 360.324 96.3 360.894 96.3ZM371.64 97.5059H369.956V89.3528H371.64V97.5059ZM370.9 96.0959H375.168V97.5059H370.9V96.0959ZM383.822 97.6909C382.699 97.6909 381.872 97.4145 381.34 96.8636C380.808 96.313 380.543 95.509 380.543 94.45V89.3528H382.22V94.4884C382.22 95.0711 382.348 95.5132 382.601 95.8174C382.854 96.1216 383.26 96.2746 383.822 96.2746C384.379 96.2746 384.785 96.1216 385.038 95.8174C385.291 95.5132 385.416 95.0711 385.416 94.4884V89.3528H387.094V94.45C387.094 95.509 386.828 96.313 386.297 96.8636C385.765 97.4145 384.94 97.6909 383.822 97.6909ZM394.804 97.5059V89.6655H396.482V97.5059H394.804ZM392.482 90.7499V89.3528H398.791V90.7499H392.482ZM405.92 97.5059H404.242V89.3528H405.92V97.5059ZM414.982 97.6909C413.855 97.6909 413.005 97.3952 412.428 96.8062C411.852 96.2171 411.563 95.375 411.563 94.2777V92.6191C411.563 91.5176 411.852 90.6691 412.428 90.0737C413.005 89.4783 413.855 89.1805 414.982 89.1805C416.109 89.1805 416.962 89.4783 417.538 90.0737C418.115 90.6691 418.401 91.5176 418.401 92.6191V94.2777C418.401 95.375 418.115 96.2171 417.54 96.8062C416.966 97.3952 416.113 97.6909 414.982 97.6909ZM414.982 96.3C415.556 96.3 415.986 96.13 416.271 95.7898C416.556 95.4494 416.698 94.971 416.698 94.3545V92.5426C416.698 91.9046 416.556 91.4132 416.271 91.0709C415.986 90.7286 415.556 90.5584 414.982 90.5584C414.412 90.5584 413.985 90.7286 413.7 91.0709C413.415 91.4132 413.273 91.9046 413.273 92.5426V94.3545C413.273 94.971 413.415 95.4494 413.7 95.7898C413.985 96.13 414.412 96.3 414.982 96.3ZM426.424 89.3528L428.988 95.6813H429.071L429.001 92.2045V89.3528H430.602V97.5059H428.293L425.664 91.0625H425.582L425.652 94.6478V97.5059H424.044V89.3528H426.424ZM438.95 97.6719C438.571 97.6719 438.218 97.6441 437.889 97.5887C437.559 97.5334 437.261 97.4633 436.996 97.3804C436.73 97.2975 436.5 97.2147 436.309 97.1294L436.162 95.5474C436.494 95.7218 436.887 95.877 437.342 96.0152C437.797 96.1534 438.282 96.2235 438.797 96.2235C439.341 96.2235 439.735 96.1449 439.977 95.9876C440.219 95.8301 440.341 95.5879 440.341 95.2604V95.19C440.341 94.9774 440.29 94.8008 440.185 94.6626C440.081 94.5244 439.907 94.4032 439.664 94.297C439.422 94.1906 439.092 94.0821 438.676 93.9717C438.089 93.8099 437.608 93.6249 437.232 93.4186C436.855 93.2124 436.577 92.9551 436.398 92.6467C436.219 92.3385 436.13 91.9515 436.13 91.4834V91.4069C436.13 90.6924 436.372 90.1439 436.855 89.7611C437.338 89.3783 438.05 89.1869 438.995 89.1869C439.582 89.1869 440.085 89.2401 440.507 89.3465C440.927 89.4527 441.281 89.576 441.566 89.7163L441.712 91.1901C441.393 91.0199 441.03 90.8774 440.619 90.7647C440.209 90.6522 439.76 90.5968 439.275 90.5968C438.914 90.5968 438.629 90.6307 438.418 90.6987C438.208 90.7668 438.057 90.8669 437.965 90.9987C437.874 91.1305 437.827 91.2902 437.827 91.4771C437.827 91.6685 437.876 91.8535 437.972 91.9938C438.067 92.1341 438.238 92.2617 438.484 92.3788C438.731 92.4958 439.082 92.617 439.537 92.7404C440.115 92.9019 440.589 93.0763 440.957 93.2635C441.325 93.4507 441.598 93.6929 441.776 93.9907C441.955 94.2886 442.044 94.682 442.044 95.1709V95.2858C442.044 96.0726 441.789 96.6659 441.276 97.0677C440.764 97.4696 439.988 97.6719 438.95 97.6719Z" fill="white"/>
</g>
<defs>
<filter id="filter0_b_52_9251" x="-106.511" y="-106.529" width="682.313" height="336.671" filterUnits="userSpaceOnUse" color-interpolation-filters="sRGB">
<feFlood flood-opacity="0" result="BackgroundImageFix"/>
<feGaussianBlur in="BackgroundImageFix" stdDeviation="53.2647"/>
<feComposite in2="SourceAlpha" operator="in" result="effect1_backgroundBlur_52_9251"/>
<feBlend mode="normal" in="SourceGraphic" in2="effect1_backgroundBlur_52_9251" result="shape"/>
</filter>
</defs>
</svg>
