<svg width="160" height="71" viewBox="0 0 160 71" fill="none" xmlns="http://www.w3.org/2000/svg">
<g clip-path="url(#clip0_541_7427)">
<path fill-rule="evenodd" clip-rule="evenodd" d="M109.339 21.8909C117.406 -9.47692 56.4584 -4.45718 18.3568 31.1541C53.6777 3.4747 109.152 -8.84167 107.479 21.0499" fill="#EB5C00"/>
<path fill-rule="evenodd" clip-rule="evenodd" d="M1.43016 37.993H11.7865C10.84 43.5648 18.1787 41.1493 16.5423 39.3929C14.6114 37.8563 12.1823 37.2665 10.0022 36.2023C8.63994 35.5376 7.37442 34.6878 6.38983 33.3062C4.24779 30.3029 5.038 27.7042 7.2983 24.893C10.9875 20.3052 17.1775 21.1523 18.0765 20.8519C18.2319 20.8621 18.3914 20.8731 18.5543 20.8826C23.5982 21.1922 31.7446 21.4775 29.8132 30.2523H19.8409C20.7865 26.4099 15.212 27.3431 15.7752 29.4288C18.26 31.015 22.241 31.5639 24.8096 33.0876C27.0932 34.4424 27.5962 35.4746 27.4383 37.8332C26.8245 46.9972 18.9412 47.7448 15.8518 48.2044C8.43581 48.6704 -0.0535209 47.3255 1.43016 37.993H1.43016Z" fill="#5CAEFF"/>
<path fill-rule="evenodd" clip-rule="evenodd" d="M56.4362 37.993H66.7928C65.8463 43.5648 73.1849 41.1493 71.5483 39.3929C69.6177 37.8563 67.1884 37.2665 65.0085 36.2023C63.6462 35.5376 62.3807 34.6878 61.3959 33.3062C59.2541 30.3029 60.0443 27.7042 62.3044 24.893C65.9935 20.3052 72.1836 21.1523 73.0828 20.8519C73.2382 20.8621 73.3974 20.8731 73.5606 20.8826C78.6045 21.1922 86.7508 21.4775 84.8195 30.2523H74.8469C75.7925 26.4099 70.2183 27.3431 70.7812 29.4288C73.2663 31.015 77.2472 31.5639 79.8157 33.0876C82.0995 34.4424 82.6025 35.4746 82.4446 37.8332C81.8308 46.9972 73.9475 47.7448 70.858 48.2044C63.4421 48.6704 54.9528 47.3255 56.4362 37.993Z" fill="#5CAEFF"/>
<path fill-rule="evenodd" clip-rule="evenodd" d="M32.6517 56.4393L36.564 44.828C38.2511 48.0945 41.646 48.4999 44.9153 47.7829C50.6618 46.5234 53.7864 43.4755 56.4436 38.0932C58.4577 34.0156 59.7162 28.7758 57.1994 23.9112C53.3376 17.6533 45.0273 20.618 42.8542 22.676L43.0078 21.1939H33.0352L21.7586 56.4393H32.6517ZM40.9364 38.9811C36.4876 36.7573 42.0109 27.5342 45.6158 28.6053C49.1707 28.9891 47.0483 39.1728 40.9364 38.9811Z" fill="#5CAEFF"/>
<path fill-rule="evenodd" clip-rule="evenodd" d="M106.126 20.6819C112.885 22.3413 114.603 27.6444 114.119 30.3345C114.381 33.7658 111.443 46.7333 99.3128 48.7497C96.0709 49.2884 92.1713 49.0452 87.5004 47.628C76.5061 40.4408 84.9193 23.2266 95.7084 20.7821C100.066 19.9414 103.483 20.0328 106.126 20.6819ZM86.1196 30.5816H95.4785L100.618 21.6056L102.536 30.664H111.971L103.533 36.5107L104.76 45.4869L97.4728 40.3813L88.1139 45.5693L92.1799 36.5107L86.1196 30.5816Z" fill="#5CAEFF"/>
<path fill-rule="evenodd" clip-rule="evenodd" d="M110.64 48.2217L116.985 28.8468L113.795 28.7376L115.56 22.182L119.02 22.2912C120.472 17.3697 123.694 12.4146 129.157 12.5846L136.901 12.8232L134.796 19.9968C132.544 19.9277 130.799 19.1356 129.809 22.4004H136.392L138.936 14.6064L149.351 14.7516L147.146 22.182L150.878 22.2912L148.74 28.9562L145.009 28.884L141.483 40.2779L145.449 40.3929L142.735 48.7324C139.174 48.9445 127.715 50.3799 130.086 42.4032L134.084 28.9562L127.64 28.8463L121.361 48.1494" fill="#5CAEFF"/>
<path fill-rule="evenodd" clip-rule="evenodd" d="M6.84858 68.3036L4.65352 60.5952H3.5185L1.26544 68.3036H2.29195L2.78877 66.4321H5.32978L5.81188 68.3036H6.84858ZM18.2174 68.3036V64.2489C18.2174 63.8028 18.0975 63.4497 17.8567 63.1888C17.6175 62.9302 17.2915 62.8004 16.8794 62.8004C16.5973 62.8004 16.3497 62.8592 16.1383 62.9789C15.9274 63.0966 15.7296 63.289 15.5452 63.5528V60.5952H14.6877V68.3036H15.5452V65.1998C15.5452 64.611 15.6234 64.1808 15.7792 63.9116C15.9342 63.6421 16.1834 63.5066 16.5237 63.5066C16.8261 63.5066 17.0393 63.6032 17.1637 63.7975C17.2885 63.9896 17.3513 64.3483 17.3513 64.8715V68.3036H18.2174ZM51.7588 60.5952L53.9538 68.3036H52.9171L52.435 66.4321H49.894L49.3972 68.3036H48.3707L50.6238 60.5952H51.7588ZM75.445 68.3036V64.2489C75.445 63.8028 75.3251 63.4497 75.0843 63.1888C74.8453 62.9302 74.519 62.8004 74.1069 62.8004C73.8249 62.8004 73.5773 62.8592 73.3659 62.9789C73.155 63.0966 72.9572 63.289 72.7728 63.5528V60.5952H71.9153V68.3036H72.7728V65.1998C72.7728 64.611 72.851 64.1808 73.0068 63.9116C73.1618 63.6421 73.411 63.5066 73.7513 63.5066C74.0537 63.5066 74.2669 63.6032 74.3913 63.7975C74.5161 63.9896 74.5789 64.3483 74.5789 64.8715V68.3036H75.445ZM103.434 60.5952L105.629 68.3036H104.592L104.11 66.4321H101.569L101.072 68.3036H100.045L102.299 60.5952H103.434ZM131.434 68.3036V64.2489C131.434 63.8028 131.314 63.4497 131.073 63.1888C130.834 62.9302 130.508 62.8004 130.096 62.8004C129.814 62.8004 129.566 62.8592 129.355 62.9789C129.144 63.0966 128.946 63.289 128.762 63.5528V60.5952H127.905V68.3036H128.762V65.1998C128.762 64.611 128.84 64.1808 128.996 63.9116C129.151 63.6421 129.4 63.5066 129.741 63.5066C130.043 63.5066 130.256 63.6032 130.38 63.7975C130.505 63.9896 130.568 64.3483 130.568 64.8715V68.3036H131.434ZM21.5151 61.5819V60.5989H20.6875V61.5819H21.5151ZM78.7426 60.5989V61.5819H77.9151V60.5989H78.7426ZM68.0222 61.8477V62.9302H67.2633V63.5942H68.0222V67.1367C68.0222 67.5864 68.1088 67.9008 68.28 68.0791C68.4524 68.2557 68.7504 68.3449 69.1722 68.3449C69.2721 68.3449 69.3818 68.3376 69.4982 68.3213C69.6158 68.3055 69.7408 68.2824 69.8736 68.2503L69.8786 67.5543H69.8487C69.6672 67.5689 69.5379 67.5762 69.4599 67.5762C69.2388 67.5762 69.0872 67.5202 69.0041 67.4115C68.9212 67.3011 68.88 67.1014 68.88 66.812V63.5942H69.8786V62.9302H68.88V61.409L68.0222 61.8477ZM4.07355 61.7974L5.08215 65.5225H3.02665L4.07355 61.7974ZM51.1788 61.7974L52.1874 65.5225H50.1321L51.1788 61.7974ZM103.862 65.5225L102.854 61.7974L101.807 65.5225H103.862ZM87.3518 68.905H88.3253C88.3319 69.149 88.4003 69.3418 88.5299 69.4863C88.6592 69.6308 88.8323 69.7042 89.0464 69.7042C89.3609 69.7042 89.5818 69.6169 89.7095 69.442C89.8378 69.2686 89.9023 68.942 89.9023 68.4663V67.6919C89.7247 67.9468 89.5367 68.1343 89.3421 68.254C89.1477 68.3734 88.9352 68.4342 88.7046 68.4342C88.1291 68.4342 87.7091 68.2017 87.4411 67.7362C87.1738 67.2709 87.0392 66.5396 87.0392 65.5437C87.0392 64.5967 87.1738 63.9006 87.4411 63.4563C87.7091 63.0122 88.1257 62.7894 88.6944 62.7894C88.9488 62.7894 89.1731 62.8429 89.3722 62.9514C89.57 63.0589 89.7462 63.2228 89.9023 63.4424L89.9504 62.9302H90.8165C90.8017 63.0516 90.7881 63.1888 90.7795 63.3405C90.7716 63.492 90.7682 63.6725 90.7682 63.8829V68.5906C90.7682 68.9262 90.7451 69.183 90.7 69.3613C90.6552 69.5415 90.5824 69.6989 90.4805 69.8341C90.3348 70.0342 90.1481 70.177 89.9193 70.266C89.6898 70.3553 89.3958 70.3995 89.0351 70.3995C88.5163 70.3995 88.111 70.2697 87.8187 70.0106C87.5258 69.7504 87.3715 69.3832 87.3518 68.905ZM139.599 63.2123C139.585 63.0873 139.575 62.9891 139.569 62.92H140.426L140.509 63.6243C140.6 63.3568 140.752 63.1518 140.966 63.0073C141.18 62.8629 141.447 62.7894 141.764 62.7894C141.781 62.7894 141.806 62.7914 141.84 62.795C141.873 62.7986 141.902 62.8004 141.925 62.8004V63.7457C141.895 63.7457 141.857 63.744 141.809 63.7403C141.759 63.7367 141.726 63.735 141.706 63.735C141.275 63.735 140.968 63.835 140.784 64.0346C140.6 64.2362 140.509 64.5736 140.509 65.0461V68.3036H139.652V63.8296C139.652 63.7865 139.633 63.5813 139.599 63.2123ZM59.5071 68.3036V64.2489C59.5071 63.8028 59.3872 63.4497 59.1464 63.1888C58.9074 62.9302 58.5812 62.8004 58.1691 62.8004C57.887 62.8004 57.6394 62.8612 57.4262 62.9806C57.2137 63.1014 57.0193 63.2926 56.8446 63.5528L56.805 62.9302H55.9289C55.9441 63.1014 55.9572 63.2566 55.9656 63.3962C55.9742 63.5353 55.9776 63.6632 55.9776 63.778V68.3036H56.8351V65.1998C56.8351 64.611 56.9131 64.1808 57.0691 63.9116C57.2239 63.6421 57.4733 63.5066 57.8136 63.5066C58.116 63.5066 58.329 63.6032 58.4534 63.7975C58.5784 63.9896 58.641 64.3483 58.641 64.8715V68.3036H59.5071ZM84.7782 64.2489V68.3036H83.9121V64.8715C83.9121 64.3483 83.8493 63.9896 83.7245 63.7975C83.6001 63.6032 83.3869 63.5066 83.0845 63.5066C82.7442 63.5066 82.495 63.6421 82.34 63.9116C82.1842 64.1808 82.106 64.611 82.106 65.1998V68.3036H81.2485V63.778C81.2485 63.6632 81.2451 63.5353 81.2368 63.3962C81.2281 63.2566 81.2152 63.1014 81.2001 62.9302H82.0761L82.1158 63.5528C82.2904 63.2926 82.4848 63.1014 82.6973 62.9806C82.9105 62.8612 83.1581 62.8004 83.4402 62.8004C83.8523 62.8004 84.1783 62.9302 84.4175 63.1888C84.6583 63.4497 84.7782 63.8028 84.7782 64.2489ZM111.182 68.3036V64.2489C111.182 63.8028 111.062 63.4497 110.821 63.1888C110.582 62.9302 110.256 62.8004 109.844 62.8004C109.562 62.8004 109.314 62.8612 109.101 62.9806C108.889 63.1014 108.694 63.2926 108.52 63.5528L108.48 62.9302H107.604C107.619 63.1014 107.632 63.2566 107.641 63.3962C107.649 63.5353 107.652 63.6632 107.652 63.778V68.3036H108.51V65.1998C108.51 64.611 108.588 64.1808 108.744 63.9116C108.899 63.6421 109.148 63.5066 109.488 63.5066C109.791 63.5066 110.004 63.6032 110.128 63.7975C110.253 63.9896 110.316 64.3483 110.316 64.8715V68.3036H111.182ZM12.4267 66.4856H11.564C11.5545 66.8407 11.4646 67.1245 11.2967 67.3352C11.127 67.5458 10.9043 67.6508 10.6252 67.6508C10.2679 67.6508 10.0119 67.4971 9.85741 67.1907C9.70312 66.8838 9.62632 66.3623 9.62632 65.6276C9.62632 64.8715 9.70652 64.3435 9.86602 64.0439C10.0237 63.744 10.2928 63.5942 10.6737 63.5942C10.9523 63.5942 11.1689 63.6815 11.3232 63.8564C11.4775 64.0293 11.5545 64.2737 11.5545 64.5874H12.4018V64.4717C12.4018 63.9741 12.2389 63.5728 11.9134 63.2676C11.5855 62.9623 11.1571 62.8106 10.6252 62.8106C9.96547 62.8106 9.48835 63.0321 9.19452 63.4745C8.89887 63.9169 8.7507 64.6341 8.7507 65.6276C8.7507 66.6216 8.89887 67.3371 9.19452 67.7758C9.48835 68.2143 9.96547 68.4342 10.6252 68.4342C11.1836 68.4342 11.6207 68.2625 11.9383 67.922C12.2536 67.581 12.4165 67.1014 12.4267 66.4856ZM26.4086 67.3831C26.5699 67.2065 26.7128 66.6196 26.7128 66.6196H27.5703C27.5438 67.187 27.3726 67.6331 27.057 67.9524C26.7393 68.2734 26.3125 68.4342 25.7738 68.4342C25.1057 68.4342 24.6258 68.2143 24.3347 67.7758C24.0441 67.3371 23.8995 66.6033 23.8995 65.5761C23.8995 64.611 24.0493 63.9079 24.3483 63.4692C24.6456 63.0304 25.1211 62.8106 25.7738 62.8106C26.3941 62.8106 26.8474 62.9854 27.1367 63.3356C27.4256 63.6851 27.5703 64.2379 27.5703 64.9945V65.8309H24.7851V66.1398C24.7851 66.6695 24.8633 67.053 25.0214 67.2921C25.1793 67.5312 25.4301 67.6508 25.7738 67.6508C26.0368 67.6508 26.2475 67.5616 26.4086 67.3831ZM37.9283 67.3831C38.0896 67.2065 38.1913 66.9516 38.2325 66.6196H39.09C39.0635 67.187 38.8922 67.6331 38.5767 67.9524C38.259 68.2734 37.8322 68.4342 37.2935 68.4342C36.6254 68.4342 36.1455 68.2143 35.8544 67.7758C35.5638 67.3371 35.4192 66.6033 35.4192 65.5761C35.4192 64.611 35.569 63.9079 35.868 63.4692C36.1652 63.0304 36.6408 62.8106 37.2935 62.8106C37.9138 62.8106 38.3671 62.9854 38.6564 63.3356C38.9453 63.6851 39.09 64.2379 39.09 64.9945V65.8309H36.3048V66.1398C36.3048 66.6695 36.383 67.053 36.5411 67.2921C36.699 67.5312 36.9498 67.6508 37.2935 67.6508C37.5565 67.6508 37.7672 67.5616 37.9283 67.3831ZM136.224 67.3831C136.385 67.2065 136.487 66.9516 136.528 66.6196H137.386C137.359 67.187 137.188 67.6331 136.873 67.9524C136.555 68.2734 136.128 68.4342 135.589 68.4342C134.921 68.4342 134.441 68.2143 134.15 67.7758C133.86 67.3371 133.715 66.6033 133.715 65.5761C133.715 64.611 133.865 63.9079 134.164 63.4692C134.461 63.0304 134.936 62.8106 135.589 62.8106C136.209 62.8106 136.663 62.9854 136.952 63.3356C137.241 63.6851 137.386 64.2379 137.386 64.9945V65.8309H134.601V66.1398C134.601 66.6695 134.679 67.053 134.837 67.2921C134.995 67.5312 135.246 67.6508 135.589 67.6508C135.852 67.6508 136.063 67.5616 136.224 67.3831ZM146.238 67.3831C146.4 67.2065 146.501 66.9516 146.543 66.6196H147.4C147.373 67.187 147.202 67.6331 146.887 67.9524C146.569 68.2734 146.142 68.4342 145.604 68.4342C144.936 68.4342 144.456 68.2143 144.165 67.7758C143.874 67.3371 143.729 66.6033 143.729 65.5761C143.729 64.611 143.879 63.9079 144.178 63.4692C144.475 63.0304 144.951 62.8106 145.604 62.8106C146.224 62.8106 146.677 62.9854 146.967 63.3356C147.255 63.6851 147.4 64.2379 147.4 64.9945V65.8309H144.615V66.1398C144.615 66.6695 144.693 67.053 144.851 67.2921C145.009 67.5312 145.26 67.6508 145.604 67.6508C145.866 67.6508 146.077 67.5616 146.238 67.3831ZM21.5151 62.9302V68.3036H20.6875V62.9302H21.5151ZM33.5656 62.9302L31.9981 68.3036H30.9314L29.3644 62.9302H30.3617L31.1508 66.0257C31.2158 66.2823 31.274 66.5462 31.3254 66.8157C31.3787 67.0871 31.4233 67.3655 31.4634 67.6508C31.5662 67.1622 31.6843 66.6748 31.8189 66.1858C31.8404 66.1057 31.8556 66.0542 31.8619 66.0294L32.6646 62.9302H33.5656ZM64.841 62.9302H65.7662L63.4629 70.337H62.6156L63.1654 68.3036L61.447 62.9302H62.4561L63.6527 67.1797L64.841 62.9302ZM78.7426 68.3036V62.9302H77.9151V68.3036H78.7426ZM116.516 62.9302H117.441L115.138 70.337H114.29L114.84 68.3036L113.122 62.9302H114.131L115.328 67.1797L116.516 62.9302ZM122.171 64.8586L121.324 68.3036H120.267L118.968 62.9302H119.858L120.535 66.0257C120.596 66.3035 120.65 66.5664 120.693 66.8103C120.737 67.0567 120.774 67.2957 120.802 67.5292C120.859 67.2865 120.922 66.9922 120.995 66.6464C121.068 66.3023 121.115 66.0948 121.135 66.0257L121.943 62.9302H122.97L123.759 66.0882C123.779 66.1609 123.837 66.4504 123.935 66.9548C123.98 67.1955 124.018 67.3867 124.046 67.5292C124.07 67.3563 124.104 67.1476 124.151 66.9086C124.197 66.6675 124.259 66.3806 124.334 66.0449L125.045 62.9302H125.921L124.596 68.3036H123.516L122.687 64.8532C122.67 64.7842 122.639 64.6288 122.59 64.386C122.54 64.1433 122.487 63.86 122.429 63.5317C122.381 63.8131 122.335 64.0687 122.29 64.2968C122.247 64.5249 122.207 64.7124 122.171 64.8586ZM24.7903 65.1354H26.723V64.6767C26.723 64.272 26.6449 63.9668 26.4883 63.7578C26.334 63.5492 26.1045 63.4441 25.8021 63.4441C25.4648 63.4441 25.2142 63.5796 25.0509 63.8508C24.8864 64.1219 24.8005 64.5505 24.7903 65.1354ZM36.31 65.1354H38.2427V64.6767C38.2427 64.272 38.1646 63.9668 38.008 63.7578C37.8537 63.5492 37.6242 63.4441 37.3218 63.4441C36.9845 63.4441 36.7339 63.5796 36.5705 63.8508C36.4061 64.1219 36.3202 64.5505 36.31 65.1354ZM134.606 65.1354H136.538V64.6767C136.538 64.272 136.46 63.9668 136.304 63.7578C136.149 63.5492 135.92 63.4441 135.617 63.4441C135.28 63.4441 135.03 63.5796 134.866 63.8508C134.702 64.1219 134.616 64.5505 134.606 65.1354ZM144.62 65.1354H146.553V64.6767C146.553 64.272 146.475 63.9668 146.318 63.7578C146.164 63.5492 145.934 63.4441 145.632 63.4441C145.294 63.4441 145.044 63.5796 144.881 63.8508C144.716 64.1219 144.63 64.5505 144.62 65.1354ZM88.9239 63.4745C88.5598 63.4745 88.302 63.628 88.1511 63.9364C87.9995 64.2452 87.925 64.798 87.925 65.5972C87.925 66.3254 88.0013 66.8497 88.154 67.1688C88.3072 67.4898 88.553 67.6508 88.894 67.6508C89.2546 67.6508 89.5185 67.4869 89.688 67.1603C89.8577 66.8322 89.9408 66.3108 89.9408 65.5972C89.9408 64.8374 89.8627 64.2931 89.7028 63.9648C89.5435 63.6384 89.2845 63.4745 88.9239 63.4745ZM42.4613 68.3036V67.1172H41.5121V68.3036H42.4613ZM94.1361 67.1172V68.3036H93.1871V67.1172H94.1361ZM150.771 68.3036V67.1172H149.822V68.3036H150.771Z" fill="white"/>
<path fill-rule="evenodd" clip-rule="evenodd" d="M153.243 14.9552V10.3922H155.397C155.695 10.3922 155.949 10.4962 156.158 10.7037C156.367 10.9119 156.493 11.2006 156.535 11.5707C156.535 11.6454 156.531 11.7252 156.524 11.8105C156.516 11.8956 156.5 11.9815 156.477 12.069C156.442 12.1855 156.384 12.2986 156.303 12.4088C156.222 12.5187 156.101 12.6158 155.943 12.6985C156.156 12.8111 156.292 12.9575 156.352 13.1382C156.412 13.3189 156.444 13.5047 156.448 13.6961V13.939C156.444 14.1176 156.451 14.2854 156.468 14.4408C156.486 14.5967 156.555 14.7185 156.675 14.8058V14.9552H155.989C155.962 14.872 155.942 14.7871 155.928 14.6998C155.915 14.6125 155.906 14.523 155.902 14.4318C155.898 14.3902 155.895 14.3464 155.894 14.3009C155.892 14.255 155.891 14.2117 155.891 14.1696V14.101C155.883 13.8354 155.85 13.5961 155.792 13.3845C155.734 13.1725 155.54 13.0414 155.211 12.9918H153.795V14.9552H153.243ZM153.795 12.4497H155.258C155.269 12.4536 155.281 12.4557 155.293 12.4557H155.327C155.506 12.4557 155.656 12.3765 155.777 12.2189C155.899 12.0608 155.962 11.8862 155.966 11.6858V11.6575C155.962 11.4873 155.895 11.3282 155.766 11.1809C155.636 11.0335 155.42 10.9491 155.119 10.9284H153.795V12.4497Z" fill="white"/>
<path d="M151.017 12.715C151.017 14.9206 152.683 16.7089 154.737 16.7089C156.791 16.7089 158.457 14.9206 158.457 12.715C158.457 10.5099 156.791 8.72159 154.737 8.72159C152.683 8.72159 151.017 10.5099 151.017 12.715Z" stroke="white" stroke-width="0.199081"/>
</g>
<defs>
<clipPath id="clip0_541_7427">
<rect width="160" height="70.4" fill="white"/>
</clipPath>
</defs>
</svg>
