<svg width="20" height="20" viewBox="0 0 20 20" fill="none" xmlns="http://www.w3.org/2000/svg">
<path fill-rule="evenodd" clip-rule="evenodd" d="M9.99991 3.86728C8.77129 3.86728 7.54266 4.20251 6.44699 4.87424L5.09937 2.40103L6.44658 4.87421C5.92084 5.19623 5.426 5.59547 4.97616 6.07231C4.52835 6.54668 4.15081 7.071 3.84515 7.63004C3.37242 8.49457 3.0724 9.44081 2.9519 10.4106C2.91133 10.7372 2.89086 11.0658 2.89087 11.3957C2.89006 12.6884 3.20214 13.9893 3.84315 15.1659C4.22793 15.8752 3.99739 16.7802 3.32825 17.1877C2.6591 17.5952 1.80482 17.3503 1.42045 16.6415C0.527594 15.0024 0.0930233 13.1924 0.0930176 11.3957C0.0934067 10.9379 0.121927 10.4804 0.17816 10.0271C0.346861 8.67001 0.763355 7.34846 1.41752 6.14519L1.41723 6.145C1.84258 5.36263 2.36832 4.62981 2.99167 3.96925C3.61944 3.30411 4.30985 2.74719 5.04325 2.29803C6.5719 1.36125 8.2857 0.893059 9.99991 0.893059C11.7137 0.893044 13.4283 1.36124 14.9566 2.29803C15.69 2.74722 16.3804 3.30414 17.0082 3.96928C17.6315 4.62984 18.1572 5.36266 18.5822 6.14503L18.5826 6.145C19.2365 7.34848 19.653 8.67001 19.8217 10.0271C19.8783 10.4804 19.9064 10.9379 19.9068 11.3957C19.9072 13.1925 19.4722 15.0024 18.5794 16.6415C18.195 17.3504 17.3407 17.5952 16.6716 17.1877C16.0024 16.7802 15.7719 15.8752 16.1567 15.1659C16.7977 13.9893 17.1097 12.6884 17.1089 11.3957C17.109 11.0658 17.0885 10.7372 17.0479 10.4106C16.9274 9.44083 16.6274 8.49458 16.1547 7.63005C15.849 7.07104 15.4715 6.54672 15.0237 6.07236C14.9337 5.97699 14.8419 5.88474 14.7485 5.79558L11.928 10.0045C12.0153 10.139 12.0897 10.2855 12.1479 10.442C12.5596 11.5522 12.0081 12.7676 10.9165 13.1569C9.8244 13.5463 8.60541 12.9617 8.19373 11.8519C7.78204 10.7417 8.33311 9.52628 9.42516 9.13696C9.9477 8.95119 10.4992 8.98752 10.9771 9.19807L14.5905 5.64929C14.2623 5.35426 13.9149 5.09595 13.5532 4.87422C13.0343 4.55591 12.4853 4.31314 11.9206 4.14595L11.7571 4.0997C11.1811 3.94447 10.5907 3.86726 9.99991 3.86728ZM10.5668 11.8954C10.6592 11.8467 10.7405 11.7763 10.8028 11.6835L11.4787 10.6746L10.8024 11.6835C10.7402 11.7762 10.659 11.8466 10.5668 11.8954Z" fill="black"/>
</svg>
