<svg width="20" height="20" viewBox="0 0 20 20" fill="none" xmlns="http://www.w3.org/2000/svg">
<path fill-rule="evenodd" clip-rule="evenodd" d="M9.05656 13.6926H8.80677C8.21156 13.6926 7.71479 14.1151 7.59632 14.6761H5.95056C5.62654 14.6761 5.35961 14.9045 5.30395 15.2071H2.19656C1.8126 15.2071 1.5 15.5197 1.5 15.9036V16.2619C1.5 16.6459 1.8126 16.9584 2.19656 16.9584H7.56775V17.2339C7.56775 17.9162 8.12444 18.4729 8.80672 18.4729L10.0518 18.4729H11.1762C11.8584 18.4729 12.4151 17.9162 12.4151 17.2339V16.9584H17.7863C18.1703 16.9584 18.4829 16.6459 18.4829 16.2619V15.9036C18.4829 15.5197 18.1703 15.2071 17.7863 15.2071H14.6932C14.6375 14.9044 14.3706 14.6761 14.0466 14.6761H12.3866C12.2681 14.1151 11.7714 13.6926 11.1761 13.6926H11.0063V12.7834H15.3H18.5V1.52713H1.54573V12.7834H9.05656V13.6926ZM10.4039 18.0461C10.3024 18.0555 10.1344 18.0673 10.0518 18.0699L10.0518 18.066C10.0204 18.0637 9.98877 18.0606 9.95565 18.0574C9.91485 18.0534 9.87183 18.0492 9.82444 18.0461V18.0204C9.82444 17.7535 9.61319 17.5208 9.35341 17.5208C9.19926 17.5208 9.06651 17.5936 8.97658 17.7064C8.80386 17.5851 8.65542 17.4437 8.52981 17.2853C8.6497 17.1925 8.72535 17.0555 8.72535 16.8942C8.72535 16.6202 8.51412 16.4089 8.24576 16.4089C8.23291 16.4089 8.18437 16.4103 8.17724 16.416C8.17575 16.4006 8.17408 16.3843 8.17235 16.3673C8.16414 16.287 8.15441 16.1918 8.15441 16.1035C8.15441 16.0488 8.15937 15.9985 8.16461 15.9455C8.16826 15.9085 8.17204 15.8702 8.17438 15.828C8.18437 15.8337 8.2058 15.8365 8.24147 15.8365C8.50697 15.8365 8.71536 15.6181 8.71536 15.3541C8.71536 15.1913 8.64257 15.0529 8.51412 14.9644C8.63544 14.7917 8.77675 14.6475 8.9309 14.5219C9.0251 14.6475 9.16784 14.7246 9.32914 14.7246C9.60034 14.7246 9.81159 14.5105 9.81159 14.2436C9.81159 14.2293 9.81159 14.1765 9.81016 14.1665C9.83721 14.1642 9.86852 14.1603 9.9021 14.1562C9.97133 14.1477 10.0502 14.138 10.1213 14.138V14.1408C10.1817 14.1417 10.2498 14.1492 10.3125 14.1561C10.3507 14.1603 10.3869 14.1643 10.4182 14.1665C10.4168 14.1836 10.4168 14.2293 10.4168 14.2436C10.4168 14.5105 10.628 14.7289 10.8993 14.7289C11.0605 14.7289 11.2033 14.6475 11.2932 14.5248C11.4516 14.6475 11.593 14.7917 11.7114 14.9644C11.5858 15.0529 11.513 15.1913 11.513 15.3541C11.513 15.6224 11.7214 15.8394 11.9869 15.8394C12.0226 15.8394 12.044 15.8351 12.054 15.828C12.0559 15.8734 12.06 15.9144 12.064 15.9543C12.0691 16.0045 12.074 16.053 12.074 16.1063C12.074 16.1809 12.0659 16.2621 12.0587 16.3347C12.0559 16.3635 12.0532 16.3909 12.0511 16.416C12.0411 16.4103 11.9955 16.4103 11.9826 16.4103C11.7114 16.4103 11.503 16.6287 11.503 16.8942C11.503 17.0555 11.5787 17.1925 11.6986 17.2853C11.573 17.4437 11.4245 17.5851 11.2518 17.7064C11.1619 17.5936 11.0291 17.5208 10.875 17.5208C10.6152 17.5208 10.4039 17.7563 10.4039 18.0218V18.0461ZM9.40198 16.1035C9.40198 15.7166 9.72028 15.394 10.1071 15.394C10.5011 15.394 10.8265 15.7123 10.8265 16.1063C10.8265 16.4931 10.5082 16.8186 10.1214 16.8186C9.72457 16.8186 9.40198 16.4931 9.40198 16.1035ZM5.15164 9.60953H3.56885L5.35213 4.20693H7.357L9.14028 9.60953H7.55748L7.24531 8.57544H5.46382L5.15164 9.60953ZM6.37567 5.69476L6.91401 7.47804H5.79511L6.33346 5.69476H6.37567ZM9.66062 9.60953V4.20693H11.9926C12.3936 4.20693 12.7444 4.28607 13.0452 4.44435C13.3459 4.60263 13.5798 4.8251 13.7469 5.11176C13.9139 5.39842 13.9975 5.73345 13.9975 6.11683C13.9975 6.50374 13.9113 6.83876 13.7389 7.12191C13.5684 7.40505 13.3283 7.62312 13.0188 7.77613C12.711 7.92913 12.3514 8.00563 11.9398 8.00563H11.1273V9.60953H9.66062ZM11.6444 6.86602H11.1273V5.3782H11.6444C11.8167 5.3782 11.9636 5.40809 12.0849 5.46789C12.208 5.52593 12.3021 5.61034 12.3672 5.72114C12.434 5.83017 12.4674 5.96207 12.4674 6.11683C12.4674 6.26984 12.434 6.40262 12.3672 6.51517C12.3021 6.62772 12.208 6.71478 12.0849 6.77633C11.9636 6.83613 11.8167 6.86602 11.6444 6.86602ZM16.0023 9.60953V4.20693H14.5356V9.60953H16.0023Z" fill="#1F1A17"/>
</svg>
