<svg width="20" height="20" viewBox="0 0 20 20" fill="none" xmlns="http://www.w3.org/2000/svg">
<path d="M7.25656 10.0949C5.79718 10.0949 4.60791 11.284 4.60791 12.7435C4.60791 13.3382 4.82416 13.9057 5.14843 14.3382C5.39168 13.9328 5.74306 13.5814 6.17544 13.3652C6.25656 13.3382 6.36456 13.3382 6.44569 13.3652C6.93218 13.6624 7.60782 13.6624 8.09435 13.3652C8.17547 13.3112 8.28347 13.3112 8.3646 13.3652C8.79698 13.5814 9.14835 13.9057 9.39161 14.3382C9.74298 13.9058 9.93213 13.3382 9.93213 12.7435C9.93225 11.3111 8.74299 10.0949 7.25659 10.0949H7.25656ZM7.25656 13.1489C6.63492 13.1489 6.14842 12.6625 6.14842 12.0408C6.14842 11.4192 6.63492 10.9327 7.25656 10.9327C7.87821 10.9327 8.3647 11.4192 8.3647 12.0408C8.36458 12.6626 7.87808 13.1489 7.25656 13.1489Z" fill="black"/>
<path d="M7.82433 12.0408C7.82433 12.3542 7.57025 12.6083 7.25683 12.6083C6.94328 12.6083 6.68921 12.3542 6.68921 12.0408C6.68921 11.7272 6.94329 11.4732 7.25683 11.4732C7.57026 11.4732 7.82433 11.7273 7.82433 12.0408Z" fill="black"/>
<path d="M11.689 13.9055C11.716 13.7974 11.7972 13.7434 11.8782 13.7164L12.8512 13.4461C12.9593 13.4191 13.0403 13.311 13.0403 13.1759V12.3651C13.0403 12.23 12.9592 12.1218 12.8512 12.0948L11.8782 11.8246C11.77 11.7976 11.716 11.7165 11.689 11.6355C11.5809 11.2031 11.4188 10.7976 11.2025 10.4463C11.1485 10.3652 11.1485 10.2572 11.2025 10.1761L11.716 9.31118C11.77 9.20306 11.77 9.06793 11.662 8.98679L11.0674 8.39203C10.9863 8.3109 10.8512 8.2839 10.743 8.33803L9.87814 8.85153C9.79701 8.90553 9.68901 8.90553 9.60788 8.85153C9.2295 8.63528 8.82413 8.47315 8.41874 8.36504C8.31061 8.33804 8.25661 8.25691 8.22961 8.17591L7.95936 7.20289C7.93236 7.09477 7.82423 7.01376 7.6891 7.01376H6.87834C6.74322 7.01376 6.63509 7.09489 6.60809 7.20289L6.33783 8.17591C6.31083 8.28404 6.22971 8.33804 6.1487 8.36504C5.71633 8.47316 5.31081 8.63529 4.95956 8.85153C4.87844 8.90553 4.77043 8.90553 4.68931 8.85153L3.82443 8.33803C3.7163 8.28403 3.58118 8.28403 3.50004 8.39203L2.87826 8.95965C2.79714 9.04078 2.77014 9.1759 2.82426 9.28404L3.33777 10.1489C3.39177 10.23 3.39177 10.338 3.33777 10.4192C3.12151 10.7976 2.95938 11.2029 2.85127 11.6083C2.82427 11.7164 2.74315 11.7704 2.66215 11.7974L1.68913 12.0677C1.581 12.0947 1.5 12.2028 1.5 12.338V13.1487C1.5 13.2838 1.58113 13.365 1.68913 13.419L2.66215 13.6892C2.77027 13.7162 2.82427 13.7973 2.85127 13.8784C2.9594 14.3107 3.12153 14.7162 3.33777 15.0675C3.39177 15.1486 3.39177 15.2566 3.33777 15.3377L2.82426 16.2026C2.77026 16.3108 2.77026 16.4459 2.87826 16.527L3.44576 17.0945C3.52689 17.1756 3.66201 17.2026 3.77015 17.1485L4.63503 16.635C4.71616 16.581 4.82416 16.581 4.90528 16.635C5.28367 16.8513 5.68903 17.0134 6.09443 17.1215C6.20255 17.1485 6.25655 17.2296 6.28356 17.3106L6.55381 18.2837C6.58081 18.3918 6.68894 18.4728 6.82406 18.4728H7.63482C7.76995 18.4728 7.85108 18.3917 7.90508 18.2837L8.17533 17.3106C8.20233 17.2295 8.28346 17.1485 8.36446 17.1215C8.79684 17.0134 9.20236 16.8512 9.58074 16.635C9.66187 16.581 9.76987 16.581 9.851 16.635L10.7159 17.1485C10.824 17.2025 10.9591 17.2025 11.0403 17.0945L11.6078 16.527C11.6889 16.4459 11.7159 16.3108 11.6618 16.2026L11.1483 15.3377C11.0943 15.2566 11.0943 15.1486 11.1483 15.0675C11.4188 14.7164 11.581 14.338 11.689 13.9055ZM7.25666 15.9595C5.4999 15.9595 4.06752 14.5271 4.06752 12.7704C4.06752 11.0136 5.49993 9.58123 7.25666 9.58123C9.01343 9.58123 10.4458 11.0136 10.4458 12.7704C10.4728 14.5541 9.01327 15.9595 7.25666 15.9595Z" fill="black"/>
<path d="M8.22978 13.9596C7.63514 14.2569 6.90551 14.2569 6.28387 13.9596C5.95947 14.1488 5.68923 14.4461 5.5271 14.7975C5.98661 15.2029 6.58112 15.4462 7.25689 15.4462C7.90551 15.4462 8.52716 15.2029 8.98667 14.7975C8.82442 14.4462 8.55417 14.1488 8.22978 13.9596Z" fill="black"/>
<path d="M18.4998 7.4463C18.4998 6.44627 18.0403 5.55438 17.2565 4.95978C16.8241 5.50029 16.1484 5.85167 15.3916 5.85167C14.6348 5.85167 13.9592 5.50029 13.5267 4.98679C12.7699 5.55429 12.2834 6.47331 12.2834 7.47331C12.3106 9.36523 18.4999 9.36523 18.4999 7.44631L18.4998 7.4463Z" fill="black"/>
<path d="M17.2837 3.41914C17.2837 4.46396 16.4367 5.31106 15.3918 5.31106C14.347 5.31106 13.5 4.46396 13.5 3.41914C13.5 2.37432 14.347 1.52722 15.3918 1.52722C16.4367 1.52722 17.2837 2.37432 17.2837 3.41914Z" fill="black"/>
<path d="M8.58118 3.31103C8.44606 2.68938 7.90555 2.23 7.25692 2.23C6.50015 2.23 5.90552 2.85164 5.90552 3.5814C5.90552 4.23002 6.36503 4.77054 6.98655 4.90566V6.44618H7.52707L7.52719 4.90566C8.06771 4.79754 8.47307 4.39216 8.58121 3.85164H13.0136C12.9596 3.63539 12.9596 3.39213 12.9866 3.31112L8.58118 3.31103Z" fill="black"/>
<path d="M15.3107 9.41897V11.446C14.7702 11.5541 14.3648 11.9865 14.2567 12.5H13.5811V13.0405H14.2567C14.3918 13.6622 14.9323 14.1216 15.581 14.1216C16.3377 14.1216 16.9324 13.5269 16.9324 12.7702C16.9324 12.1215 16.4728 11.581 15.8513 11.4459V9.39189C15.6079 9.41902 15.3647 9.41902 15.3107 9.41902L15.3107 9.41897Z" fill="black"/>
</svg>
