<svg width="20" height="20" viewBox="0 0 20 20" fill="none" xmlns="http://www.w3.org/2000/svg">
<path d="M10.669 17.65C10.4435 17.65 10.2273 17.5605 10.0679 17.401C9.9085 17.2416 9.81895 17.0254 9.81895 16.8V12.2304C9.81895 12.005 9.9085 11.7888 10.0679 11.6294C10.2273 11.47 10.4435 11.3804 10.669 11.3804H17.65C17.8754 11.3804 18.0916 11.47 18.251 11.6294C18.4104 11.7888 18.5 12.005 18.5 12.2304V16.8C18.5 17.0254 18.4104 17.2416 18.251 17.401C18.0916 17.5605 17.8754 17.65 17.65 17.65H10.669ZM12.034 16.715C12.034 16.7286 12.0383 16.7703 12.0383 16.885H16.12C16.12 16.8748 16.12 16.8587 16.12 16.8408C16.12 16.7949 16.12 16.7371 16.12 16.7286V16.7329C16.12 16.7159 16.12 16.6946 16.12 16.6683V16.636C16.1046 16.2577 15.9648 15.8951 15.7223 15.6045C15.4798 15.3139 15.1481 15.1114 14.7787 15.0286C14.5303 14.9805 14.2778 14.9563 14.0247 14.9564C13.9397 14.9564 13.8548 14.9564 13.7698 14.964C13.3332 14.9636 12.9127 15.1283 12.5926 15.425C12.2724 15.7217 12.0762 16.1284 12.0434 16.5637C12.0358 16.636 12.0307 16.6793 12.0273 16.704C12.0273 16.704 12.0273 16.704 12.023 16.7184C12.0223 16.7232 12.0223 16.7281 12.023 16.7329C12.0255 16.726 12.027 16.7189 12.0273 16.7116L12.034 16.715ZM16.1319 16.7873V16.7592C16.1319 16.7507 16.1319 16.7422 16.1319 16.7371C16.1311 16.7538 16.1314 16.7706 16.1328 16.7873H16.1319ZM13.0371 12.8713C12.9475 13.0777 12.9216 13.3062 12.9626 13.5274C13.0037 13.7486 13.1098 13.9526 13.2674 14.1132C13.3738 14.2208 13.5004 14.3063 13.6401 14.3647C13.7797 14.423 13.9295 14.4531 14.0808 14.4532C14.3816 14.4557 14.671 14.3388 14.8855 14.128C15.1 13.9171 15.2219 13.6298 15.2245 13.329C15.2271 13.0283 15.1101 12.7389 14.8993 12.5244C14.6885 12.3099 14.4011 12.1879 14.1004 12.1854H14.08C13.8583 12.1854 13.6414 12.2504 13.4562 12.3723C13.271 12.4942 13.1256 12.6677 13.0379 12.8713H13.0371ZM8.7335 15.1544H1.5V13.9729H2.68405V9.21291C2.68517 9.05584 2.74835 8.90559 2.85982 8.79492C2.97128 8.68426 3.12198 8.62215 3.27905 8.62216H5.64205C5.79912 8.62215 5.94982 8.68426 6.06128 8.79492C6.17275 8.90559 6.23593 9.05584 6.23705 9.21291V13.9729H7.4177V5.66501C7.4177 5.58687 7.43309 5.5095 7.46299 5.43731C7.49289 5.36512 7.53672 5.29953 7.59197 5.24428C7.64722 5.18903 7.71281 5.1452 7.785 5.1153C7.85719 5.0854 7.93456 5.07001 8.0127 5.07001H10.3791C10.5369 5.07001 10.6882 5.13269 10.7998 5.24428C10.9114 5.35586 10.9741 5.5072 10.9741 5.66501V10.2975H9.5835C9.35807 10.2975 9.14187 10.3871 8.98246 10.5465C8.82305 10.7059 8.7335 10.9221 8.7335 11.1475V15.1536V15.1544ZM15.7035 10.2975H12.1514V2.94501C12.1514 2.7872 12.214 2.63586 12.3256 2.52428C12.4372 2.41269 12.5885 2.35001 12.7464 2.35001H15.1085C15.2663 2.35001 15.4176 2.41269 15.5292 2.52428C15.6408 2.63586 15.7035 2.7872 15.7035 2.94501V10.2967V10.2975Z" fill="black"/>
</svg>
