<svg width="20" height="20" viewBox="0 0 20 20" fill="none" xmlns="http://www.w3.org/2000/svg">
<path d="M17.3817 12.404C17.2722 11.9117 17.0781 11.4523 16.8156 11.0421L17.4801 10.1477L16.4381 9.10848L15.5438 9.77038C15.1335 9.50509 14.6714 9.31371 14.1846 9.20696L14.0178 8.10753H12.5492L12.3851 9.20696C11.89 9.31083 11.4334 9.50511 11.0231 9.77038L10.829 9.62546L10.1316 9.10861L9.08955 10.1479L9.75145 11.0422C9.49157 11.4524 9.29478 11.9146 9.18802 12.4042L8.08569 12.5681V14.0394L9.18512 14.2009C9.289 14.6959 9.48869 15.1554 9.74855 15.5684L9.08665 16.4627L10.1287 17.4992L11.023 16.8373C11.4332 17.0998 11.8926 17.2913 12.385 17.4033L12.549 18.5H14.0176L14.1844 17.4033C14.674 17.2912 15.1334 17.0998 15.5436 16.8373L16.438 17.4964L17.48 16.4599L16.8154 15.5656C16.9549 15.3468 17.0753 15.1116 17.1764 14.8682C17.2639 14.6521 17.3323 14.4279 17.3815 14.2009L18.3935 14.0504L18.4783 14.0394V12.5681L17.3817 12.404ZM13.282 15.2894C12.1881 15.2894 11.2991 14.3978 11.2991 13.3038C11.2991 12.2071 12.1853 11.3182 13.282 11.3182C14.3786 11.3182 15.2676 12.2043 15.2676 13.3038C15.2676 14.3978 14.3788 15.2894 13.282 15.2894Z" fill="black"/>
<path d="M2.99583 7.89434C2.99583 5.1786 5.20568 2.97143 7.91874 2.97143C10.5196 2.97143 12.6528 5.0007 12.8252 7.56073H14.3075C14.1325 4.18306 11.3374 1.5 7.91868 1.5C6.75362 1.5 5.65697 1.81175 4.71606 2.35871C2.80437 3.46368 1.52173 5.52861 1.52173 7.89437C1.52173 11.2965 4.18283 14.0808 7.53862 14.2777V12.7982C5.00067 12.604 2.99606 10.4817 2.99606 7.89463L2.99583 7.89434Z" fill="black"/>
<path d="M8.19197 7.89434C8.19197 8.04531 8.06959 8.16782 7.9185 8.16782C7.76753 8.16782 7.64502 8.04531 7.64502 7.89434C7.64502 7.74325 7.76753 7.62086 7.9185 7.62086C8.06959 7.62086 8.19197 7.74325 8.19197 7.89434Z" fill="black"/>
<path d="M9.83847 5.58583C9.31607 5.15094 8.64876 4.88564 7.91585 4.88564C6.34879 4.88564 5.05783 6.08895 4.91846 7.62052H5.74442C5.87839 6.54298 6.80282 5.70606 7.91598 5.70606C8.42187 5.70606 8.88409 5.8783 9.25602 6.16827L9.83847 5.58583Z" fill="black"/>
<path d="M9.0945 11.0777L8.36423 10.093L10.0736 8.38924L11.0554 9.11397C11.3235 8.97169 11.6051 8.85409 11.895 8.76659L12.0755 7.55774H12.2752C12.1056 5.30434 10.2186 3.51833 7.91864 3.51833C5.50647 3.51833 3.54272 5.48201 3.54272 7.89425C3.54272 10.1779 5.30396 12.0568 7.5383 12.2508V12.0977L8.74716 11.9172C8.83466 11.63 8.95226 11.351 9.0944 11.0775L9.0945 11.0777ZM7.09807 7.89428C7.09807 7.44302 7.46723 7.07386 7.91849 7.07386C8.04427 7.07386 8.16187 7.10395 8.27127 7.15595L8.87022 6.557C8.60216 6.36562 8.27405 6.25066 7.92126 6.25066C7.01597 6.25066 6.28029 6.98635 6.28029 7.89163C6.28029 8.0421 6.15728 8.16511 6.00681 8.16511H4.63931C4.48884 8.16511 4.36583 8.0421 4.36583 7.89163C4.36583 5.93072 5.96022 4.33636 7.9211 4.33636C8.8017 4.33636 9.60855 4.66185 10.232 5.19507L10.5165 4.91065C10.6231 4.804 10.7955 4.804 10.9021 4.91065C11.0088 5.01729 11.0088 5.18966 10.9021 5.29631L10.6177 5.58074C11.1511 6.20161 11.4764 7.0083 11.4764 7.89167C11.4764 8.04213 11.3534 8.16514 11.2029 8.16514H9.83543C9.68496 8.16514 9.56195 8.04213 9.56195 7.89167C9.56195 7.53888 9.44712 7.21062 9.25838 6.9427L8.65943 7.54165C8.71144 7.6483 8.74153 7.7659 8.74153 7.89444C8.74153 8.3457 8.37237 8.71486 7.92111 8.71486C7.46985 8.71486 7.09791 8.34834 7.09791 7.89444L7.09807 7.89428Z" fill="black"/>
<path d="M10.0874 7.62068H10.9133C10.8559 6.99717 10.607 6.42833 10.2269 5.97153L9.64429 6.55397C9.87949 6.85754 10.0381 7.22129 10.0874 7.62068Z" fill="black"/>
</svg>
