<svg width="20" height="20" viewBox="0 0 20 20" fill="none" xmlns="http://www.w3.org/2000/svg">
<path d="M15.6028 6.93521L17.2788 5.2592L14.7408 2.72121L13.0648 4.39723C12.6578 4.18177 12.2267 3.99021 11.7958 3.87047V1.5H8.20423V3.87047C7.74925 3.99022 7.34226 4.18178 6.93521 4.39723L5.2592 2.72121L2.72121 5.2592L4.39723 6.93521C4.18177 7.34223 3.99021 7.77333 3.87047 8.20423H1.5V11.7958H3.87047C3.99022 12.2507 4.18178 12.6577 4.39723 13.0648L2.72121 14.7408L5.2592 17.2788L6.93521 15.6028C7.34223 15.8182 7.77333 16.0098 8.20423 16.1295V18.5H11.7958V16.1295C12.2507 16.0098 12.6577 15.8182 13.0648 15.6028L14.7408 17.2788L17.2788 14.7408L15.6028 13.0648C15.8182 12.6578 16.0098 12.2267 16.1295 11.7958H18.5V8.20423H16.1295C16.0098 7.74925 15.8423 7.34225 15.6028 6.93521ZM9.99996 13.1366C8.27601 13.1366 6.86338 11.724 6.86338 10C6.86338 8.2761 8.27601 6.86347 9.99996 6.86347C11.7239 6.86347 13.1365 8.2761 13.1365 10C13.1365 11.724 11.7239 13.1366 9.99996 13.1366Z" fill="black"/>
</svg>
