<svg width="20" height="20" viewBox="0 0 20 20" fill="none" xmlns="http://www.w3.org/2000/svg">
<path d="M10 1C10.7551 1 11.3758 1.52366 11.5429 2.20977C11.0436 2.11106 10.5279 2.05882 10 2.05882C9.47243 2.05882 8.95685 2.11102 8.45776 2.20963C8.62805 1.51614 9.25477 1 10 1Z" fill="black"/>
<path d="M10 19C9.25473 19 8.62805 18.4839 8.45776 17.7904C8.95685 17.889 9.47243 17.9412 10 17.9412C10.5279 17.9412 11.0436 17.8889 11.5429 17.7902C11.3757 18.4769 10.7545 19 10 19Z" fill="black"/>
<path d="M16.5977 5.58522C16.9673 4.98056 16.898 4.17003 16.364 3.636C15.8362 3.10818 15.0263 3.0306 14.4152 3.40257C15.2768 3.98104 16.0193 4.72362 16.5977 5.58522Z" fill="black"/>
<path d="M3.6359 16.3639C3.10176 15.8299 3.03226 15.0196 3.40215 14.4147C3.98069 15.2765 4.72339 16.0192 5.58516 16.5977C4.98008 16.9676 4.16955 16.8976 3.6359 16.3639Z" fill="black"/>
<path d="M17.7904 8.45767C17.889 8.95676 17.9412 9.47233 17.9412 9.99994C17.9412 10.5278 17.8889 11.0435 17.7902 11.5428C18.4764 11.3757 19 10.7549 19 9.99994C19 9.25468 18.4839 8.62796 17.7904 8.45767Z" fill="black"/>
<path d="M1 9.99994C1 9.25468 1.51614 8.62796 2.20964 8.45767C2.11103 8.95676 2.05883 9.47233 2.05883 9.99994C2.05883 10.5278 2.11106 11.0435 2.20978 11.5428C1.52295 11.3756 1 10.7544 1 9.99994Z" fill="black"/>
<path d="M14.4148 16.5976C15.0196 16.9673 15.8301 16.8977 16.364 16.3638C16.8979 15.8299 16.9678 15.0198 16.5978 14.4145C16.0192 15.2764 15.2766 16.0191 14.4148 16.5976Z" fill="black"/>
<path d="M3.63597 3.63598C4.16376 3.10816 4.97359 3.03058 5.58471 3.40258C4.72314 3.98105 3.98062 4.72364 3.40219 5.5852C3.25162 5.33885 3.1709 5.05522 3.1709 4.75904C3.1709 4.3347 3.33608 3.93584 3.63597 3.63598Z" fill="black"/>
<path d="M10.0001 11.0588C10.5849 11.0588 11.0589 10.5847 11.0589 10C11.0589 9.41528 10.5849 8.94126 10.0001 8.94126C9.4154 8.94126 8.94137 9.41528 8.94137 10C8.94137 10.5847 9.4154 11.0588 10.0001 11.0588Z" fill="black"/>
<path d="M9.47062 6.33215V7.94939C8.72753 8.14139 8.14133 8.72759 7.94937 9.47063H6.33212C6.56495 7.85007 7.85005 6.56498 9.47062 6.33215Z" fill="black"/>
<path d="M10.5296 6.33215V7.94939C11.2726 8.14135 11.8588 8.72759 12.0508 9.47063H13.6681C13.4352 7.85007 12.1501 6.56498 10.5296 6.33215Z" fill="black"/>
<path d="M6.33212 10.5294H7.94937C8.14133 11.2725 8.72753 11.8587 9.47062 12.0507V13.6679C7.85005 13.4351 6.56495 12.15 6.33212 10.5294Z" fill="black"/>
<path d="M10.5296 12.0507V13.6679C12.1501 13.4351 13.4352 12.15 13.6681 10.5294H12.0508C11.8588 11.2725 11.2726 11.8587 10.5296 12.0507Z" fill="black"/>
<path fill-rule="evenodd" clip-rule="evenodd" d="M10.0001 3.11764C6.20515 3.11764 3.11773 6.20504 3.11773 9.99997C3.11773 13.7949 6.20515 16.8823 10.0001 16.8823C13.795 16.8823 16.8825 13.7949 16.8825 9.99997C16.8825 6.20504 13.795 3.11764 10.0001 3.11764ZM10.0001 14.7647C7.37282 14.7647 5.23538 12.6272 5.23538 9.99997C5.23538 7.37274 7.37282 5.23528 10.0001 5.23528C12.6274 5.23528 14.7648 7.37274 14.7648 9.99997C14.7648 12.6272 12.6274 14.7647 10.0001 14.7647Z" fill="black"/>
</svg>
