<svg width="20" height="20" viewBox="0 0 20 20" fill="none" xmlns="http://www.w3.org/2000/svg">
<path d="M8.83774 14.7909H1.5V13.6038H2.6337V8.82287C2.63049 8.66893 2.68845 8.51999 2.79489 8.40872C2.90132 8.29744 3.04754 8.23292 3.20148 8.22929H5.46336C5.61729 8.23292 5.76351 8.29744 5.86995 8.40872C5.97638 8.51999 6.03434 8.66893 6.03113 8.82287V13.6038H7.1676V5.26138C7.16438 5.10744 7.22235 4.9585 7.32878 4.84723C7.43522 4.73595 7.58144 4.67143 7.73537 4.6678H10C10.154 4.67143 10.3002 4.73595 10.4066 4.84723C10.513 4.9585 10.571 5.10744 10.5678 5.26138V9.64227C9.99233 10.1517 9.53152 10.7774 9.21581 11.4781C8.9001 12.1788 8.73668 12.9385 8.73635 13.707V13.7374C8.73613 14.0904 8.77008 14.4426 8.83774 14.7891V14.7909ZM11.7015 8.86988V2.52483C11.6983 2.37103 11.7561 2.22223 11.8624 2.11099C11.9686 1.99974 12.1146 1.93511 12.2683 1.93124H14.5348C14.6886 1.93511 14.8346 1.99974 14.9408 2.11099C15.0471 2.22223 15.1049 2.37103 15.1017 2.52483V8.3611C14.7921 8.30721 14.4785 8.28008 14.1643 8.27999C13.3089 8.27722 12.4651 8.47883 11.7033 8.86804L11.7015 8.86988Z" fill="black"/>
<path d="M14.1072 18.0687L14.0823 17.7858C13.9256 17.776 13.7696 17.7572 13.615 17.7295L13.5293 18.0061L12.5541 17.7093L12.6463 17.4162C12.4871 17.3398 12.3332 17.2529 12.1855 17.1562L11.9836 17.3977L11.202 16.7415L11.4121 16.4908C11.3115 16.3773 11.217 16.2586 11.1292 16.135L10.8361 16.2898L10.3559 15.3902L10.6545 15.2308C10.5946 15.0687 10.5456 14.9027 10.5079 14.734L10.1715 14.7635L10.0793 13.7478L10.4213 13.7183C10.4282 13.5685 10.4436 13.4192 10.4674 13.2712L10.1402 13.1698L10.4388 12.1947L10.7605 12.2924C10.8307 12.1346 10.9111 11.9816 11.0011 11.8343L10.7494 11.6204L11.4057 10.8388L11.6536 11.0462C11.7654 10.942 11.883 10.8441 12.0057 10.7531L11.8573 10.4766L12.7578 9.99639L12.8998 10.2637C13.0657 10.1981 13.236 10.1442 13.4095 10.1024L13.3846 9.81205L14.3985 9.71988L14.4224 9.99639C14.5811 10.0005 14.7393 10.0143 14.8962 10.0379L14.9782 9.78071L15.9534 10.0793L15.8787 10.3218C16.0478 10.396 16.2114 10.4822 16.3682 10.5798L16.5313 10.39L17.3129 11.0462L17.1618 11.2306C17.2741 11.3498 17.3787 11.476 17.4752 11.6085L17.6779 11.5006L18.1572 12.4011L17.9618 12.5053C18.029 12.6818 18.0832 12.8629 18.124 13.0473L18.3425 13.0279L18.4347 14.0418L18.2171 14.0611C18.2102 14.2268 18.1926 14.3918 18.1646 14.5552L18.3738 14.6188L18.3204 14.7948C18.0482 14.5474 17.7177 14.3731 17.3598 14.2883C17.0019 14.2035 16.6284 14.211 16.2742 14.31C16.2899 14.2394 16.3019 14.168 16.3101 14.0962H15.9654C15.9056 14.0962 15.8483 14.0724 15.806 14.0302C15.7638 13.9879 15.74 13.9306 15.74 13.8708C15.74 13.811 15.7638 13.7537 15.806 13.7115C15.8483 13.6692 15.9056 13.6454 15.9654 13.6454H16.3101C16.2968 13.5249 16.2724 13.4058 16.2373 13.2897L15.923 13.4224C15.894 13.4354 15.8625 13.4417 15.8308 13.4408C15.7942 13.4402 15.7582 13.4307 15.726 13.4131C15.6939 13.3954 15.6665 13.3702 15.6462 13.3397C15.626 13.3091 15.6135 13.274 15.6099 13.2375C15.6062 13.201 15.6115 13.1642 15.6253 13.1302C15.6362 13.1027 15.6524 13.0777 15.6732 13.0566C15.6939 13.0356 15.7187 13.0189 15.746 13.0076L16.0594 12.874C16.0053 12.7789 15.9437 12.6882 15.8751 12.603L15.6336 12.8445C15.6135 12.8652 15.5893 12.8815 15.5626 12.8924C15.5335 12.905 15.5021 12.9113 15.4704 12.9108C15.4107 12.9104 15.3535 12.8864 15.3113 12.8442C15.269 12.8019 15.2451 12.7448 15.2446 12.685C15.2446 12.6554 15.2504 12.626 15.2618 12.5986C15.2732 12.5713 15.2899 12.5464 15.311 12.5256L15.5534 12.2841C15.4589 12.2084 15.3577 12.1414 15.2511 12.0841L15.1229 12.4011C15.1121 12.4286 15.0958 12.4536 15.075 12.4747C15.0543 12.4958 15.0295 12.5124 15.0022 12.5237C14.9732 12.5365 14.9417 12.5428 14.91 12.5422C14.881 12.542 14.8522 12.5363 14.8252 12.5256C14.7975 12.5148 14.7723 12.4986 14.7511 12.4779C14.7299 12.4571 14.7131 12.4323 14.7017 12.4048C14.6902 12.3772 14.6843 12.3476 14.6843 12.3177C14.6843 12.2878 14.6902 12.2582 14.7017 12.2306L14.8298 11.9145C14.7248 11.8848 14.6176 11.8638 14.5091 11.8518V12.1938C14.5091 12.2534 14.4856 12.3107 14.4436 12.3532C14.423 12.3733 14.399 12.3895 14.3727 12.4011C14.3383 12.4155 14.3009 12.4212 14.2637 12.4177C14.2266 12.4142 14.1909 12.4016 14.1598 12.381C14.1288 12.3604 14.1032 12.3324 14.0855 12.2996C14.0678 12.2668 14.0585 12.2301 14.0584 12.1928V11.8518C13.9378 11.8653 13.8187 11.8896 13.7026 11.9246L13.8372 12.2389C13.8602 12.2941 13.8606 12.3561 13.8381 12.4115C13.8157 12.4669 13.7723 12.5112 13.7173 12.5348C13.6881 12.5467 13.6568 12.5527 13.6252 12.5523C13.5809 12.5526 13.5375 12.5398 13.5004 12.5155C13.4634 12.4913 13.4343 12.4566 13.4169 12.4159L13.2832 12.1016C13.1861 12.1552 13.0936 12.2169 13.0067 12.2859L13.2491 12.5274C13.2701 12.5483 13.2868 12.5732 13.2982 12.6005C13.3096 12.6279 13.3154 12.6572 13.3154 12.6869C13.3154 12.7165 13.3096 12.7458 13.2982 12.7732C13.2868 12.8006 13.2701 12.8254 13.2491 12.8463C13.2289 12.8669 13.2048 12.8832 13.1781 12.8943C13.1489 12.9064 13.1176 12.9123 13.086 12.9118C13.0564 12.9119 13.0271 12.9062 12.9997 12.895C12.9723 12.8838 12.9474 12.8672 12.9265 12.8463L12.6841 12.6048C12.6085 12.6994 12.5415 12.8006 12.4841 12.9072L12.8012 13.0353C12.8566 13.0578 12.901 13.1014 12.9245 13.1564C12.9479 13.2115 12.9487 13.2737 12.9265 13.3293C12.9155 13.357 12.8991 13.3821 12.8782 13.4034C12.8573 13.4246 12.8323 13.4414 12.8048 13.4528C12.7775 13.4647 12.748 13.4707 12.7182 13.4703C12.6885 13.4708 12.659 13.4652 12.6316 13.4537L12.3366 13.3238C12.3071 13.4288 12.2861 13.5361 12.2739 13.6445H12.6168C12.6614 13.6446 12.705 13.6579 12.742 13.6827C12.7791 13.7075 12.808 13.7428 12.825 13.784C12.8421 13.8252 12.8466 13.8705 12.8379 13.9143C12.8292 13.958 12.8078 13.9982 12.7763 14.0298C12.756 14.0503 12.7319 14.0665 12.7053 14.0777C12.6762 14.09 12.6447 14.096 12.6131 14.0952H12.273C12.2868 14.2154 12.3108 14.3341 12.3449 14.4501L12.6601 14.3165C12.6893 14.3041 12.7207 14.2981 12.7523 14.2989C12.7893 14.2989 12.8257 14.308 12.8583 14.3254C12.891 14.3428 12.9189 14.3679 12.9395 14.3986C12.9602 14.4293 12.973 14.4645 12.9768 14.5013C12.9807 14.5381 12.9754 14.5753 12.9615 14.6096C12.9505 14.637 12.9342 14.6619 12.9135 14.683C12.8927 14.704 12.868 14.7207 12.8408 14.7321L12.5256 14.8667C12.5797 14.9618 12.6413 15.0524 12.7099 15.1377L12.9523 14.8953C12.9731 14.8744 12.9978 14.8579 13.025 14.8466C13.0522 14.8354 13.0814 14.8297 13.1109 14.8298C13.1406 14.8296 13.1701 14.8353 13.1977 14.8465C13.2253 14.8578 13.2503 14.8744 13.2714 14.8954C13.2925 14.9164 13.3092 14.9414 13.3206 14.9689C13.3319 14.9964 13.3377 15.0259 13.3376 15.0557C13.3379 15.0853 13.3322 15.1146 13.321 15.142C13.3097 15.1694 13.2931 15.1942 13.2722 15.2151L13.0297 15.4575C13.1249 15.5328 13.2263 15.5997 13.333 15.6575L13.4547 15.3423C13.4774 15.287 13.5209 15.2428 13.576 15.2194C13.631 15.1959 13.693 15.195 13.7487 15.217C13.804 15.2397 13.8481 15.2833 13.8714 15.3384C13.8947 15.3934 13.8953 15.4555 13.8731 15.511L13.745 15.829C13.85 15.8575 13.9569 15.8784 14.0648 15.8917V15.5469C14.0649 15.5022 14.0783 15.4585 14.1032 15.4214C14.1281 15.3843 14.1635 15.3555 14.2049 15.3385C14.2462 15.3215 14.2917 15.3172 14.3355 15.3261C14.3794 15.335 14.4195 15.3566 14.451 15.3884C14.4717 15.4091 14.488 15.4337 14.4991 15.4607C14.5101 15.4878 14.5157 15.5168 14.5155 15.546V15.8889C14.5958 15.8797 14.6756 15.8658 14.7543 15.8474C14.707 16.0279 14.6831 16.2138 14.6833 16.4004V16.4299C14.682 16.8912 14.829 17.3407 15.1027 17.712H15.0962L15.1202 17.9775L14.1072 18.0687ZM14.8105 15.6723L14.7395 15.5036C14.7251 15.4693 14.7194 15.432 14.7228 15.395C14.7263 15.358 14.7388 15.3224 14.7593 15.2914C14.7799 15.2604 14.8077 15.235 14.8404 15.2173C14.8732 15.1997 14.9097 15.1904 14.9469 15.1902C14.9788 15.1907 15.0102 15.1979 15.0391 15.2114C14.9445 15.3554 14.8674 15.5101 14.8096 15.6723H14.8105ZM15.64 14.6013L15.6373 14.5856C15.6204 14.5445 15.616 14.4993 15.6247 14.4557C15.6333 14.4121 15.6545 14.372 15.6858 14.3404C15.717 14.3088 15.7568 14.287 15.8003 14.2778C15.8438 14.2687 15.889 14.2725 15.9304 14.2888L16.1147 14.3616C15.9505 14.4218 15.7942 14.5016 15.6492 14.5994L15.64 14.6013Z" fill="black"/>
<path d="M18.4464 16.263H18.2787C18.2429 16.263 18.208 16.2514 18.1793 16.2299C18.1506 16.2085 18.1295 16.1784 18.1192 16.1441C18.0946 16.0582 18.0602 15.9753 18.0169 15.8971C17.9999 15.8653 17.9935 15.8288 17.9988 15.7931C18.0042 15.7574 18.0208 15.7244 18.0464 15.6989L18.1653 15.581C18.1756 15.5703 18.1813 15.5561 18.1813 15.5413C18.1813 15.5266 18.1756 15.5123 18.1653 15.5017L17.9284 15.2657C17.9178 15.2555 17.9036 15.2498 17.8888 15.2498C17.874 15.2498 17.8598 15.2555 17.8492 15.2657L17.7312 15.3874C17.7056 15.4128 17.6725 15.4294 17.6368 15.4345C17.6011 15.4396 17.5647 15.4332 17.533 15.416C17.4548 15.3727 17.3719 15.3384 17.286 15.3137C17.2517 15.3034 17.2216 15.2823 17.2002 15.2536C17.1788 15.2249 17.1672 15.19 17.1671 15.1542V14.9819C17.1671 14.9745 17.1657 14.9672 17.1628 14.9605C17.16 14.9537 17.1558 14.9476 17.1506 14.9424C17.1454 14.9373 17.1391 14.9332 17.1323 14.9305C17.1255 14.9278 17.1182 14.9264 17.1109 14.9266H16.7763C16.7616 14.9266 16.7476 14.9324 16.7372 14.9427C16.7268 14.9531 16.721 14.9672 16.721 14.9819V15.1496C16.7209 15.1854 16.7093 15.2203 16.6879 15.249C16.6665 15.2777 16.6364 15.2988 16.6021 15.3091C16.5162 15.3337 16.4333 15.3681 16.3551 15.4114C16.3237 15.4294 16.2874 15.4367 16.2516 15.4324C16.2157 15.4281 16.1822 15.4123 16.156 15.3874L16.038 15.2685C16.0274 15.2583 16.0132 15.2525 15.9984 15.2525C15.9836 15.2525 15.9694 15.2583 15.9587 15.2685L15.7228 15.5054C15.7125 15.516 15.7068 15.5302 15.7068 15.545C15.7068 15.5598 15.7125 15.574 15.7228 15.5847L15.8417 15.7026C15.8671 15.7282 15.8836 15.7613 15.8888 15.797C15.8939 15.8327 15.8874 15.8691 15.8703 15.9008C15.827 15.979 15.7926 16.0619 15.768 16.1478C15.7577 16.1821 15.7366 16.2122 15.7079 16.2336C15.6792 16.255 15.6443 16.2666 15.6085 16.2667H15.4398C15.4258 16.2667 15.4122 16.272 15.402 16.2816C15.3917 16.2912 15.3855 16.3043 15.3845 16.3183V16.652C15.3845 16.6667 15.3903 16.6807 15.4007 16.6911C15.4111 16.7015 15.4252 16.7073 15.4398 16.7073H15.6076C15.6435 16.7074 15.6785 16.7192 15.7072 16.7408C15.7359 16.7623 15.7569 16.7926 15.767 16.8271C15.7917 16.9131 15.826 16.9959 15.8693 17.0741C15.8865 17.1059 15.893 17.1423 15.8879 17.178C15.8827 17.2136 15.8662 17.2467 15.8408 17.2723L15.7219 17.3903C15.7116 17.4009 15.7059 17.4151 15.7059 17.4299C15.7059 17.4447 15.7116 17.4589 15.7219 17.4696L15.9578 17.7055C15.9685 17.7158 15.9827 17.7215 15.9975 17.7215C16.0122 17.7215 16.0264 17.7158 16.0371 17.7055L16.1551 17.5875C16.1868 17.5563 16.2295 17.5387 16.274 17.5387C16.3017 17.5387 16.3289 17.5457 16.3532 17.559C16.4315 17.6023 16.5143 17.6366 16.6003 17.6613C16.6346 17.6716 16.6647 17.6926 16.6861 17.7213C16.7075 17.7501 16.7191 17.7849 16.7192 17.8207V17.9885C16.7192 18.0031 16.725 18.0172 16.7354 18.0276C16.7457 18.038 16.7598 18.0438 16.7745 18.0438H17.1081C17.1228 18.0438 17.1369 18.038 17.1472 18.0276C17.1576 18.0172 17.1634 18.0031 17.1634 17.9885V17.8216C17.1635 17.7858 17.1751 17.751 17.1965 17.7223C17.2179 17.6935 17.248 17.6725 17.2823 17.6622C17.3683 17.6375 17.4511 17.6032 17.5293 17.5599C17.5611 17.5427 17.5975 17.5362 17.6332 17.5414C17.6689 17.5465 17.7019 17.563 17.7275 17.5885L17.8455 17.7074C17.8561 17.7176 17.8703 17.7233 17.8851 17.7233C17.8999 17.7233 17.9141 17.7176 17.9248 17.7074L18.1607 17.4714C18.171 17.4607 18.1767 17.4465 18.1767 17.4318C18.1767 17.417 18.171 17.4028 18.1607 17.3921L18.0437 17.2732C18.0182 17.2477 18.0017 17.2146 17.9966 17.1789C17.9914 17.1432 17.9979 17.1068 18.0151 17.0751C18.0584 16.9968 18.0927 16.914 18.1174 16.828C18.1277 16.7937 18.1487 16.7636 18.1775 16.7422C18.2062 16.7208 18.241 16.7092 18.2768 16.7091H18.4446C18.4593 16.7091 18.4733 16.7033 18.4837 16.6929C18.4941 16.6826 18.4999 16.6685 18.4999 16.6538V16.3183C18.4999 16.3037 18.4941 16.2896 18.4837 16.2792C18.4733 16.2689 18.4593 16.263 18.4446 16.263H18.4464Z" fill="black"/>
</svg>
