<svg width="20" height="20" viewBox="0 0 20 20" fill="none" xmlns="http://www.w3.org/2000/svg">
<path d="M13.1306 17.6048V15.8153H18.499V17.6048H13.1306ZM10.4464 17.6048V15.8153H12.2359V17.6048H10.4464ZM9.11324 15.784H1.49902V14.5475H2.67918V9.56916C2.67582 9.40904 2.7361 9.25413 2.84681 9.1384C2.95751 9.02266 3.1096 8.95555 3.26971 8.95179H5.62913C5.78924 8.95555 5.94133 9.02266 6.05203 9.1384C6.16273 9.25413 6.22302 9.40904 6.21966 9.56916V14.5475H7.40071V5.86048C7.39735 5.70027 7.45761 5.54526 7.56829 5.42938C7.67897 5.3135 7.83105 5.24621 7.99124 5.24222H10.3507C10.5109 5.24621 10.6629 5.3135 10.7736 5.42938C10.8843 5.54526 10.9446 5.70027 10.9412 5.86048V8.96969H10.0089C9.77155 8.96969 9.54399 9.06396 9.37619 9.23175C9.2084 9.39955 9.11412 9.62713 9.11412 9.86443V15.7831L9.11324 15.784ZM13.1306 14.9206V13.1311H18.499V14.9206H13.1306ZM10.4464 14.9206V13.1311H12.2359V14.9206H10.4464ZM13.1306 12.2364V10.4469H18.499V12.2364H13.1306ZM10.4464 12.2364V10.4469H12.2359V12.2364H10.4464ZM15.66 8.97059H12.1204V3.01343C12.1171 2.85322 12.1773 2.69821 12.288 2.58234C12.3987 2.46646 12.5508 2.39916 12.711 2.39517H15.0704C15.2307 2.39893 15.3829 2.46615 15.4936 2.58208C15.6044 2.69801 15.6645 2.85316 15.6609 3.01343V8.96969L15.66 8.97059Z" fill="black"/>
</svg>
