<svg width="20" height="20" viewBox="0 0 20 20" fill="none" xmlns="http://www.w3.org/2000/svg">
<path d="M9.99987 1.5L8.51409 2.52089L6.74614 2.14736L5.7584 3.65819L3.99044 3.99021L3.65841 5.76652L2.14759 6.75425L2.51278 8.5141L1.5 9.99988L2.51278 11.494L2.14759 13.2539L3.65841 14.2416L3.99044 16.0179L5.7584 16.3499L6.74614 17.8608L8.51409 17.4872L9.99987 18.5L11.4857 17.4872L13.2536 17.8608L14.2413 16.3499L16.0093 16.0179L16.3413 14.2416L17.8522 13.2539L17.487 11.494L18.4997 9.99988L17.487 8.5141L17.8522 6.75425L16.3413 5.76652L16.0093 3.99021L14.2413 3.65819L13.2536 2.14736L11.4857 2.52089L9.99987 1.5ZM9.99987 3.89886C13.3709 3.89886 16.1092 6.63714 16.1092 10.0082C16.1092 13.379 13.3709 16.1175 9.99987 16.1175C6.62902 16.1175 3.89055 13.3792 3.89055 10.0082C3.89055 6.63733 6.62883 3.89886 9.99987 3.89886ZM9.99987 4.43006C6.91599 4.43006 4.42179 6.92435 4.42179 10.0081C4.42179 13.0919 6.91609 15.5862 9.99987 15.5862C13.0837 15.5862 15.578 13.0919 15.578 10.0081C15.578 6.92435 13.0837 4.43006 9.99987 4.43006ZM12.5814 7.352L13.7435 8.43944L9.7592 12.6895L9.228 13.2539L8.64695 12.7391L6.25644 10.6141L7.31884 9.42718L9.1283 11.0375L12.5814 7.352Z" fill="black"/>
</svg>
