<svg width="20" height="20" viewBox="0 0 20 20" fill="none" xmlns="http://www.w3.org/2000/svg">
<path d="M10.0373 10.1446L17.4011 5.8675C17.4123 5.86104 17.4215 5.85176 17.428 5.84059C17.4344 5.82941 17.4378 5.81674 17.4377 5.80384C17.4377 5.79095 17.4343 5.77829 17.4278 5.76714C17.4213 5.75599 17.412 5.74676 17.4008 5.74036L10.037 1.50995C10.0257 1.50343 10.0129 1.5 9.99992 1.5C9.98689 1.5 9.97409 1.50343 9.96281 1.50995L2.59903 5.78708C2.58785 5.79352 2.57858 5.80281 2.57214 5.81399C2.5657 5.82517 2.56233 5.83785 2.56236 5.85075C2.56239 5.86365 2.56582 5.87631 2.57231 5.88746C2.5788 5.89861 2.58812 5.90785 2.59933 5.91424L9.96311 10.1448C9.97441 10.1512 9.98721 10.1546 10.0002 10.1546C10.0133 10.1546 10.026 10.1511 10.0373 10.1446ZM10.8911 11.4421C10.8799 11.4484 10.8706 11.4576 10.8641 11.4687C10.8577 11.4798 10.8542 11.4924 10.8542 11.5052L10.8542 13.7135C10.8543 13.7264 10.8579 13.7391 10.8644 13.7502C10.871 13.7613 10.8803 13.7705 10.8916 13.7769C10.9028 13.7833 10.9155 13.7866 10.9284 13.7866C10.9413 13.7865 10.954 13.7831 10.9651 13.7766L17.4007 10.1035C17.4119 10.0972 17.4212 10.088 17.4277 10.0769C17.4342 10.0658 17.4376 10.0532 17.4376 10.0404L17.4376 7.83211C17.4375 7.8192 17.4339 7.80656 17.4274 7.79544C17.4208 7.78433 17.4115 7.77512 17.4003 7.76874C17.389 7.76236 17.3763 7.75903 17.3634 7.75908C17.3505 7.75913 17.3379 7.76256 17.3267 7.76902L10.8911 11.4421ZM10.0371 18.4902L17.4007 14.28C17.4119 14.2736 17.4212 14.2644 17.4277 14.2532C17.4342 14.2421 17.4376 14.2294 17.4376 14.2166L17.4376 12.0052C17.4375 11.9923 17.434 11.9796 17.4275 11.9685C17.4209 11.9574 17.4116 11.9481 17.4004 11.9417C17.3891 11.9353 17.3764 11.932 17.3635 11.932C17.3506 11.932 17.3379 11.9355 17.3267 11.9419L10.0001 16.1311L2.6734 11.9418C2.66222 11.9354 2.64954 11.9319 2.63662 11.9319C2.6237 11.9319 2.611 11.9352 2.59978 11.9416C2.58856 11.948 2.57921 11.9573 2.57267 11.9684C2.56613 11.9795 2.56263 11.9922 2.5625 12.0051L2.5625 14.2165C2.56254 14.2293 2.56597 14.242 2.57245 14.2531C2.57894 14.2642 2.58824 14.2734 2.59942 14.2797L9.96307 18.4902C9.97434 18.4966 9.98709 18.5 10.0001 18.5C10.013 18.5 10.0258 18.4966 10.0371 18.4902ZM9.03992 13.653L9.03992 11.4447C9.0399 11.4318 9.03647 11.4192 9.02999 11.4081C9.02351 11.3971 9.01421 11.3879 9.00303 11.3816L2.67344 7.76905C2.66227 7.76259 2.6496 7.75916 2.63669 7.75911C2.62378 7.75906 2.61109 7.76239 2.59987 7.76877C2.58865 7.77515 2.5793 7.78436 2.57274 7.79548C2.56619 7.80659 2.56266 7.81923 2.5625 7.83214L2.5625 10.0405C2.56253 10.0533 2.56595 10.0659 2.57243 10.077C2.57891 10.0881 2.58821 10.0972 2.59939 10.1036L8.92899 13.7161C8.94016 13.7225 8.95283 13.726 8.96574 13.726C8.97865 13.7261 8.99135 13.7227 9.00257 13.7164C9.01379 13.71 9.02314 13.7008 9.02969 13.6896C9.03625 13.6785 9.03977 13.6659 9.03992 13.653Z" fill="black"/>
</svg>
