<svg width="20" height="20" viewBox="0 0 20 20" fill="none" xmlns="http://www.w3.org/2000/svg">
<path d="M17.723 9.47101L14.5156 8.0975V3.98077C14.5156 3.41164 14.2068 2.90321 13.7387 2.70212L10.4184 1.27929C10.1494 1.16167 9.85059 1.16167 9.57832 1.27929L6.25801 2.70212C5.78984 2.90321 5.48105 3.41164 5.48105 3.98077V8.0975L2.27363 9.47101C1.80879 9.6721 1.5 10.1805 1.5 10.7497V14.9271C1.5 15.4431 1.75566 15.9174 2.16074 16.1488L5.48105 18.0459C5.81641 18.2394 6.21484 18.2394 6.5502 18.0459L10 16.0729L13.4498 18.0459C13.7852 18.2394 14.1836 18.2394 14.5189 18.0459L17.8393 16.1488C18.2443 15.9174 18.5 15.4431 18.5 14.9271V10.7497C18.5 10.1805 18.1912 9.6721 17.723 9.47101ZM13.3867 8.12785L10.5645 9.33821V6.75055L13.3867 5.34669V8.12785ZM6.61328 3.92765L10 2.47826L13.3867 3.92765V3.95042L10 5.52122L6.61328 3.95042V3.92765ZM9.40234 14.9726L6.58008 16.5852V13.5839L9.40234 12.1118V14.9726ZM9.40234 10.7231L6.01562 12.2939L2.62891 10.7231V10.7003L6.01562 9.25094L9.40234 10.7003V10.7231ZM17.3711 14.9726L14.5488 16.5852V13.5839L17.3711 12.1118V14.9726ZM17.3711 10.7231L13.9844 12.2939L10.5977 10.7231V10.7003L13.9844 9.25094L17.3711 10.7003V10.7231Z" fill="black"/>
</svg>
