<svg width="20" height="20" viewBox="0 0 20 20" fill="none" xmlns="http://www.w3.org/2000/svg">
<path d="M10.2857 4C10.2857 4.1578 10.1578 4.28572 9.99998 4.28572C9.84218 4.28572 9.71426 4.1578 9.71426 4C9.71426 3.8422 9.84218 3.71428 9.99998 3.71428C10.1578 3.71428 10.2857 3.8422 10.2857 4Z" fill="black"/>
<path d="M10.2857 7.71428C10.2857 7.87208 10.1578 8 9.99998 8C9.84218 8 9.71426 7.87208 9.71426 7.71428C9.71426 7.55649 9.84218 7.42857 9.99998 7.42857C10.1578 7.42857 10.2857 7.55649 10.2857 7.71428Z" fill="black"/>
<path d="M9.44524 7.06638C9.76252 6.78738 10.2376 6.78738 10.5549 7.06638L12.5855 5.85334C12.577 5.80744 12.5724 5.76094 12.5715 5.71428C12.5715 5.70437 12.5729 5.69484 12.5742 5.6853C12.5752 5.67814 12.5762 5.67098 12.5766 5.66366L10.5827 4.625C10.256 4.9345 9.74427 4.9345 9.41758 4.625L7.42362 5.66366C7.42404 5.67098 7.42505 5.67814 7.42605 5.6853C7.42737 5.6948 7.42871 5.70441 7.42871 5.71428C7.42784 5.76094 7.42315 5.80747 7.41465 5.85334L9.44524 7.06638Z" fill="black"/>
<path d="M6.57146 6C6.72926 6 6.85718 5.87208 6.85718 5.71428C6.85718 5.55649 6.72926 5.42857 6.57146 5.42857C6.41366 5.42857 6.28574 5.55649 6.28574 5.71428C6.28574 5.87208 6.41366 6 6.57146 6Z" fill="black"/>
<path d="M13.7142 5.71428C13.7142 5.87208 13.5863 6 13.4285 6C13.2707 6 13.1428 5.87208 13.1428 5.71428C13.1428 5.55649 13.2707 5.42857 13.4285 5.42857C13.5863 5.42857 13.7142 5.55649 13.7142 5.71428Z" fill="black"/>
<path d="M13.4285 9.71428C13.5863 9.71428 13.7142 9.58636 13.7142 9.42857C13.7142 9.27077 13.5863 9.14285 13.4285 9.14285C13.2707 9.14285 13.1428 9.27077 13.1428 9.42857C13.1428 9.58636 13.2707 9.71428 13.4285 9.71428Z" fill="black"/>
<path d="M6.85718 9.42857C6.85718 9.58636 6.72926 9.71428 6.57146 9.71428C6.41366 9.71428 6.28574 9.58636 6.28574 9.42857C6.28574 9.27077 6.41366 9.14285 6.57146 9.14285C6.72926 9.14285 6.85718 9.27077 6.85718 9.42857Z" fill="black"/>
<path d="M13.1429 6.51876C13.0398 6.48204 12.9447 6.42582 12.8629 6.3532L10.8416 7.56064C10.9223 7.97414 10.6848 8.38357 10.2857 8.51879V10.6241C10.3884 10.6607 10.483 10.7165 10.5646 10.7887L12.5786 9.49904C12.5778 9.49006 12.5766 9.4812 12.5754 9.47236C12.5734 9.45794 12.5714 9.44354 12.5714 9.4286C12.5726 9.06657 12.8014 8.74439 13.1429 8.6241L13.1429 6.51876Z" fill="black"/>
<path d="M9.15828 7.56061C9.07762 7.9741 9.31515 8.38354 9.71418 8.51876V10.6241C9.61159 10.6607 9.51693 10.7165 9.43534 10.7887L7.42134 9.49904C7.4221 9.49001 7.42332 9.48111 7.42453 9.47221C7.4265 9.45785 7.42847 9.4435 7.42847 9.4286C7.42734 9.06654 7.1985 8.74439 6.85703 8.6241V6.51879C6.96012 6.48207 7.05519 6.42586 7.13703 6.3532L9.15828 7.56061Z" fill="black"/>
<path d="M10.2857 11.4286C10.2857 11.5864 10.1578 11.7143 9.99998 11.7143C9.84218 11.7143 9.71426 11.5864 9.71426 11.4286C9.71426 11.2708 9.84218 11.1428 9.99998 11.1428C10.1578 11.1428 10.2857 11.2708 10.2857 11.4286Z" fill="black"/>
<path fill-rule="evenodd" clip-rule="evenodd" d="M17.1428 2H2.85715C2.38397 2.00053 2.00053 2.38397 2 2.85716V13.4286H18V2.85716C17.9995 2.38397 17.616 2.00053 17.1428 2ZM13.752 10.2228C13.4289 10.354 13.0584 10.2761 12.8156 10.0258L10.843 11.2889C10.9055 11.6271 10.7599 11.9698 10.473 12.1596C10.1862 12.3493 9.8138 12.3493 9.52699 12.1596C9.24017 11.9698 9.09452 11.6271 9.15699 11.2889L7.18437 10.0258C6.93868 10.2797 6.56215 10.3564 6.23668 10.2188C5.91121 10.0813 5.70384 9.75781 5.71468 9.40466C5.72552 9.0515 5.95243 8.74138 6.28571 8.62406V6.51875C5.9494 6.40097 5.72143 6.08691 5.71362 5.73066C5.70581 5.37441 5.91984 5.05066 6.25068 4.91828C6.58152 4.78588 6.95977 4.87263 7.1999 5.13591L9.15474 4.11766C9.14802 4.07875 9.14405 4.03944 9.14283 4C9.14283 3.52663 9.52658 3.14285 9.99998 3.14285C10.4734 3.14285 10.8571 3.52663 10.8571 4C10.8559 4.03947 10.852 4.07878 10.8452 4.11769L12.8001 5.13594C13.0403 4.87306 13.4183 4.78666 13.7488 4.91903C14.0794 5.05144 14.2932 5.37488 14.2855 5.73088C14.2778 6.08688 14.0502 6.40078 13.7142 6.51878V8.62409C14.0557 8.74438 14.2845 9.06653 14.2857 9.42859C14.2863 9.77734 14.0751 10.0915 13.752 10.2228Z" fill="black"/>
<path d="M5.71426 17.4286H14.2857V18H5.71426V17.4286Z" fill="black"/>
<path d="M8 16.2857H12V16.8572H8V16.2857Z" fill="black"/>
<path d="M2 14.8572C2.00053 15.3303 2.38397 15.7138 2.85715 15.7143H17.1428C17.616 15.7138 17.9995 15.3303 18 14.8572V14H2V14.8572Z" fill="black"/>
</svg>
