<svg width="18" height="18" viewBox="0 0 18 18" fill="none" xmlns="http://www.w3.org/2000/svg">
<path fill-rule="evenodd" clip-rule="evenodd" d="M1.89474 0.947372H2.84211V6.67896C3.77011 6.86734 4.50109 7.59831 4.68947 8.52632H7.57895V9.47369H4.68947C4.50109 10.4017 3.77011 11.1327 2.84211 11.321V17.0526H1.89474V11.321C0.813676 11.1016 0 10.1458 0 9C0 7.85418 0.813676 6.8984 1.89474 6.67896V0.947372ZM2.36842 7.57896C3.15325 7.57896 3.78947 8.21518 3.78947 9.00001C3.78947 9.78348 3.15545 10.4189 2.3725 10.4211H2.36434C1.58139 10.4189 0.947368 9.78348 0.947368 9.00001C0.947368 8.21518 1.5836 7.57896 2.36842 7.57896ZM8.52632 7.23445C8.52632 6.37828 9.2333 5.68421 10.1053 5.68421H16.4211C17.293 5.68421 18 6.37828 18 7.23445V9.55981H8.52632V7.23445ZM8.52632 10.3349V10.6876C8.52632 11.27 9.01646 11.7442 9.61897 11.7442H11.8056V13.5059H11.0769C10.8757 13.5059 10.7126 13.6634 10.7126 13.8582C10.7126 14.0531 10.8757 14.2105 11.0769 14.2105H15.4492C15.6505 14.2105 15.8137 14.0531 15.8137 13.8582C15.8137 13.6634 15.6505 13.5059 15.4492 13.5059H14.7207V11.7442H16.9073C17.5097 11.7442 18 11.27 18 10.6876V10.3349H8.52632ZM13.9919 13.5059H12.5344V11.7442H13.9919V13.5059Z" fill="#535353"/>
</svg>
